  0
SECTION
  2
HEADER
  9
$ACADVER
  1
AC1024
  9
$ACADMAINTVER
 70
     6
  9
$DWGCODEPAGE
  3
ANSI_1252
  9
$LASTSAVEDBY
  1
savpek
  9
$INSBASE
 10
0.0
 20
0.0
 30
0.0
  9
$EXTMIN
 10
-59.99999999976002
 20
-59.99999999976002
 30
0.0
  9
$EXTMAX
 10
100.0
 20
100.0
 30
0.0
  9
$LIMMIN
 10
0.0
 20
0.0
  9
$LIMMAX
 10
12.0
 20
9.0
  9
$ORTHOMODE
 70
     1
  9
$REGENMODE
 70
     1
  9
$FILLMODE
 70
     1
  9
$QTEXTMODE
 70
     0
  9
$MIRRTEXT
 70
     1
  9
$LTSCALE
 40
1.0
  9
$ATTMODE
 70
     1
  9
$TEXTSIZE
 40
0.2
  9
$TRACEWID
 40
0.05
  9
$TEXTSTYLE
  7
Standard
  9
$CLAYER
  8
0
  9
$CELTYPE
  6
ByLayer
  9
$CECOLOR
 62
   256
  9
$CELTSCALE
 40
1.0
  9
$DISPSILH
 70
     0
  9
$DIMSCALE
 40
1.0
  9
$DIMASZ
 40
0.18
  9
$DIMEXO
 40
0.0625
  9
$DIMDLI
 40
0.38
  9
$DIMRND
 40
0.0
  9
$DIMDLE
 40
0.0
  9
$DIMEXE
 40
0.18
  9
$DIMTP
 40
0.0
  9
$DIMTM
 40
0.0
  9
$DIMTXT
 40
0.18
  9
$DIMCEN
 40
0.09
  9
$DIMTSZ
 40
0.0
  9
$DIMTOL
 70
     0
  9
$DIMLIM
 70
     0
  9
$DIMTIH
 70
     1
  9
$DIMTOH
 70
     1
  9
$DIMSE1
 70
     0
  9
$DIMSE2
 70
     0
  9
$DIMTAD
 70
     0
  9
$DIMZIN
 70
     0
  9
$DIMBLK
  1

  9
$DIMASO
 70
     1
  9
$DIMSHO
 70
     1
  9
$DIMPOST
  1

  9
$DIMAPOST
  1

  9
$DIMALT
 70
     0
  9
$DIMALTD
 70
     2
  9
$DIMALTF
 40
25.4
  9
$DIMLFAC
 40
1.0
  9
$DIMTOFL
 70
     0
  9
$DIMTVP
 40
0.0
  9
$DIMTIX
 70
     0
  9
$DIMSOXD
 70
     0
  9
$DIMSAH
 70
     0
  9
$DIMBLK1
  1

  9
$DIMBLK2
  1

  9
$DIMSTYLE
  2
Standard
  9
$DIMCLRD
 70
     0
  9
$DIMCLRE
 70
     0
  9
$DIMCLRT
 70
     0
  9
$DIMTFAC
 40
1.0
  9
$DIMGAP
 40
0.09
  9
$DIMJUST
 70
     0
  9
$DIMSD1
 70
     0
  9
$DIMSD2
 70
     0
  9
$DIMTOLJ
 70
     1
  9
$DIMTZIN
 70
     0
  9
$DIMALTZ
 70
     0
  9
$DIMALTTZ
 70
     0
  9
$DIMUPT
 70
     0
  9
$DIMDEC
 70
     4
  9
$DIMTDEC
 70
     4
  9
$DIMALTU
 70
     2
  9
$DIMALTTD
 70
     2
  9
$DIMTXSTY
  7
Standard
  9
$DIMAUNIT
 70
     0
  9
$DIMADEC
 70
     0
  9
$DIMALTRND
 40
0.0
  9
$DIMAZIN
 70
     0
  9
$DIMDSEP
 70
    46
  9
$DIMATFIT
 70
     3
  9
$DIMFRAC
 70
     0
  9
$DIMLDRBLK
  1

  9
$DIMLUNIT
 70
     2
  9
$DIMLWD
 70
    -2
  9
$DIMLWE
 70
    -2
  9
$DIMTMOVE
 70
     0
  9
$DIMFXL
 40
1.0
  9
$DIMFXLON
 70
     0
  9
$DIMJOGANG
 40
0.7853981633974483
  9
$DIMTFILL
 70
     0
  9
$DIMTFILLCLR
 70
     0
  9
$DIMARCSYM
 70
     0
  9
$DIMLTYPE
  6

  9
$DIMLTEX1
  6

  9
$DIMLTEX2
  6

  9
$DIMTXTDIRECTION
 70
     0
  9
$LUNITS
 70
     2
  9
$LUPREC
 70
     4
  9
$SKETCHINC
 40
0.1
  9
$FILLETRAD
 40
0.5
  9
$AUNITS
 70
     0
  9
$AUPREC
 70
     0
  9
$MENU
  1
.
  9
$ELEVATION
 40
0.0
  9
$PELEVATION
 40
0.0
  9
$THICKNESS
 40
0.0
  9
$LIMCHECK
 70
     0
  9
$CHAMFERA
 40
0.5
  9
$CHAMFERB
 40
0.5
  9
$CHAMFERC
 40
1.0
  9
$CHAMFERD
 40
0.0
  9
$SKPOLY
 70
     0
  9
$TDCREATE
 40
2456229.758833044
  9
$TDUCREATE
 40
2456229.675499711
  9
$TDUPDATE
 40
2456229.945254167
  9
$TDUUPDATE
 40
2456229.861920833
  9
$TDINDWG
 40
0.0000000116
  9
$TDUSRTIMER
 40
2456229.861613009
  9
$USRTIMER
 70
     1
  9
$ANGBASE
 50
0.0
  9
$ANGDIR
 70
     0
  9
$PDMODE
 70
     0
  9
$PDSIZE
 40
0.0
  9
$PLINEWID
 40
0.0
  9
$SPLFRAME
 70
     0
  9
$SPLINETYPE
 70
     6
  9
$SPLINESEGS
 70
     8
  9
$HANDSEED
  5
606
  9
$SURFTAB1
 70
     6
  9
$SURFTAB2
 70
     6
  9
$SURFTYPE
 70
     6
  9
$SURFU
 70
     6
  9
$SURFV
 70
     6
  9
$UCSBASE
  2

  9
$UCSNAME
  2

  9
$UCSORG
 10
0.0
 20
0.0
 30
0.0
  9
$UCSXDIR
 10
1.0
 20
0.0
 30
0.0
  9
$UCSYDIR
 10
0.0
 20
1.0
 30
0.0
  9
$UCSORTHOREF
  2

  9
$UCSORTHOVIEW
 70
     0
  9
$UCSORGTOP
 10
0.0
 20
0.0
 30
0.0
  9
$UCSORGBOTTOM
 10
0.0
 20
0.0
 30
0.0
  9
$UCSORGLEFT
 10
0.0
 20
0.0
 30
0.0
  9
$UCSORGRIGHT
 10
0.0
 20
0.0
 30
0.0
  9
$UCSORGFRONT
 10
0.0
 20
0.0
 30
0.0
  9
$UCSORGBACK
 10
0.0
 20
0.0
 30
0.0
  9
$PUCSBASE
  2

  9
$PUCSNAME
  2

  9
$PUCSORG
 10
0.0
 20
0.0
 30
0.0
  9
$PUCSXDIR
 10
1.0
 20
0.0
 30
0.0
  9
$PUCSYDIR
 10
0.0
 20
1.0
 30
0.0
  9
$PUCSORTHOREF
  2

  9
$PUCSORTHOVIEW
 70
     0
  9
$PUCSORGTOP
 10
0.0
 20
0.0
 30
0.0
  9
$PUCSORGBOTTOM
 10
0.0
 20
0.0
 30
0.0
  9
$PUCSORGLEFT
 10
0.0
 20
0.0
 30
0.0
  9
$PUCSORGRIGHT
 10
0.0
 20
0.0
 30
0.0
  9
$PUCSORGFRONT
 10
0.0
 20
0.0
 30
0.0
  9
$PUCSORGBACK
 10
0.0
 20
0.0
 30
0.0
  9
$USERI1
 70
     0
  9
$USERI2
 70
     0
  9
$USERI3
 70
     0
  9
$USERI4
 70
     0
  9
$USERI5
 70
     0
  9
$USERR1
 40
0.0
  9
$USERR2
 40
0.0
  9
$USERR3
 40
0.0
  9
$USERR4
 40
0.0
  9
$USERR5
 40
0.0
  9
$WORLDVIEW
 70
     1
  9
$SHADEDGE
 70
     3
  9
$SHADEDIF
 70
    70
  9
$TILEMODE
 70
     1
  9
$MAXACTVP
 70
    64
  9
$PINSBASE
 10
0.0
 20
0.0
 30
0.0
  9
$PLIMCHECK
 70
     0
  9
$PEXTMIN
 10
1.000000000000000E+20
 20
1.000000000000000E+20
 30
1.000000000000000E+20
  9
$PEXTMAX
 10
-1.000000000000000E+20
 20
-1.000000000000000E+20
 30
-1.000000000000000E+20
  9
$PLIMMIN
 10
0.0
 20
0.0
  9
$PLIMMAX
 10
0.0
 20
0.0
  9
$UNITMODE
 70
     0
  9
$VISRETAIN
 70
     1
  9
$PLINEGEN
 70
     0
  9
$PSLTSCALE
 70
     1
  9
$TREEDEPTH
 70
  3020
  9
$CMLSTYLE
  2
Standard
  9
$CMLJUST
 70
     0
  9
$CMLSCALE
 40
1.0
  9
$PROXYGRAPHICS
 70
     1
  9
$MEASUREMENT
 70
     0
  9
$CELWEIGHT
370
    -1
  9
$ENDCAPS
280
     0
  9
$JOINSTYLE
280
     0
  9
$LWDISPLAY
290
     0
  9
$INSUNITS
 70
     1
  9
$HYPERLINKBASE
  1

  9
$STYLESHEET
  1

  9
$XEDIT
290
     1
  9
$CEPSNTYPE
380
     0
  9
$PSTYLEMODE
290
     1
  9
$FINGERPRINTGUID
  2
{F0243300-7D6C-47F0-9B7E-AAFB16894452}
  9
$VERSIONGUID
  2
{FAEB1C32-E019-11D5-929B-00C0DF256EC4}
  9
$EXTNAMES
290
     1
  9
$PSVPSCALE
 40
0.0
  9
$OLESTARTUP
290
     0
  9
$SORTENTS
280
   127
  9
$INDEXCTL
280
     0
  9
$HIDETEXT
280
     1
  9
$XCLIPFRAME
280
     2
  9
$HALOGAP
280
     0
  9
$OBSCOLOR
 70
   257
  9
$OBSLTYPE
280
     0
  9
$INTERSECTIONDISPLAY
280
     0
  9
$INTERSECTIONCOLOR
 70
   257
  9
$DIMASSOC
280
     2
  9
$PROJECTNAME
  1

  9
$CAMERADISPLAY
290
     0
  9
$LENSLENGTH
 40
50.0
  9
$CAMERAHEIGHT
 40
0.0
  9
$STEPSPERSEC
 40
2.0
  9
$STEPSIZE
 40
6.0
  9
$3DDWFPREC
 40
2.0
  9
$PSOLWIDTH
 40
0.25
  9
$PSOLHEIGHT
 40
4.0
  9
$LOFTANG1
 40
1.570796326794897
  9
$LOFTANG2
 40
1.570796326794897
  9
$LOFTMAG1
 40
0.0
  9
$LOFTMAG2
 40
0.0
  9
$LOFTPARAM
 70
     7
  9
$LOFTNORMALS
280
     1
  9
$LATITUDE
 40
37.795
  9
$LONGITUDE
 40
-122.394
  9
$NORTHDIRECTION
 40
0.0
  9
$TIMEZONE
 70
 -8000
  9
$LIGHTGLYPHDISPLAY
280
     1
  9
$TILEMODELIGHTSYNCH
280
     1
  9
$SOLIDHIST
280
     1
  9
$SHOWHIST
280
     1
  9
$DWFFRAME
280
     2
  9
$DGNFRAME
280
     2
  9
$REALWORLDSCALE
290
     1
  9
$INTERFERECOLOR
 62
   256
  9
$CSHADOW
280
     0
  9
$SHADOWPLANELOCATION
 40
0.0
  0
ENDSEC
  0
SECTION
  2
CLASSES
  0
CLASS
  1
ACDBDICTIONARYWDFLT
  2
AcDbDictionaryWithDefault
  3
ObjectDBX Classes
 90
        0
 91
        4
280
     0
281
     0
  0
CLASS
  1
VISUALSTYLE
  2
AcDbVisualStyle
  3
ObjectDBX Classes
 90
     4095
 91
        4
280
     0
281
     0
  0
CLASS
  1
MATERIAL
  2
AcDbMaterial
  3
ObjectDBX Classes
 90
     1153
 91
        4
280
     0
281
     0
  0
CLASS
  1
DICTIONARYVAR
  2
AcDbDictionaryVar
  3
ObjectDBX Classes
 90
        0
 91
        4
280
     0
281
     0
  0
CLASS
  1
XRECORD
  2
AcDbXrecord
  3
AutoCAD 2000
 90
        0
 91
        1
280
     0
281
     0
  0
CLASS
  1
LWPOLYLINE
  2
AcDbPolyline
  3
AutoCAD 2000
 90
        0
 91
        1
280
     0
281
     1
  0
CLASS
  1
HATCH
  2
AcDbHatch
  3
AutoCAD 2000
 90
        0
 91
        1
280
     0
281
     1
  0
CLASS
  1
ACDBPLACEHOLDER
  2
AcDbPlaceHolder
  3
ObjectDBX Classes
 90
        0
 91
        1
280
     0
281
     0
  0
CLASS
  1
LAYOUT
  2
AcDbLayout
  3
ObjectDBX Classes
 90
        0
 91
        1
280
     0
281
     0
  0
CLASS
  1
SCALE
  2
AcDbScale
  3
ObjectDBX Classes
 90
     1153
 91
        4
280
     0
281
     0
  0
CLASS
  1
TABLESTYLE
  2
AcDbTableStyle
  3
ObjectDBX Classes
 90
     4095
 91
        4
280
     0
281
     0
  0
CLASS
  1
RASTERVARIABLES
  2
AcDbRasterVariables
  3
ISM
 90
        0
 91
        4
280
     0
281
     0
  0
CLASS
  1
CELLSTYLEMAP
  2
AcDbCellStyleMap
  3
ObjectDBX Classes
 90
     1152
 91
        4
280
     0
281
     0
  0
ENDSEC
  0
SECTION
  2
TABLES
  0
TABLE
  2
VPORT
  5
8
330
0
100
AcDbSymbolTable
 70
     1
  0
VPORT
  5
29
330
8
100
AcDbSymbolTableRecord
100
AcDbViewportTableRecord
  2
*Active
 70
     0
 10
0.0
 20
0.0
 11
1.0
 21
1.0
 12
86.60873729645918
 22
40.76734556893361
 13
0.0
 23
0.0
 14
0.5
 24
0.5
 15
0.5
 25
0.5
 16
0.0
 26
0.0
 36
1.0
 17
0.0
 27
0.0
 37
-1000.0
 40
203.4511615518595
 41
1.747276688453159
 42
50.0
 43
381.9432504314678
 44
565.8195283051449
 50
0.0
 51
0.0
 71
    16
 72
   100
 73
     1
 74
     3
 75
     0
 76
     0
 77
     0
 78
     0
281
     0
 65
     1
110
0.0
120
0.0
130
0.0
111
1.0
121
0.0
131
0.0
112
0.0
122
1.0
132
0.0
 79
     0
146
0.0
 60
     3
 61
     5
292
     1
282
     1
141
0.0
142
0.0
 63
   256
  0
ENDTAB
  0
TABLE
  2
LTYPE
  5
5
330
0
100
AcDbSymbolTable
 70
     1
  0
LTYPE
  5
14
330
5
100
AcDbSymbolTableRecord
100
AcDbLinetypeTableRecord
  2
ByBlock
 70
     0
  3

 72
    65
 73
     0
 40
0.0
  0
LTYPE
  5
15
330
5
100
AcDbSymbolTableRecord
100
AcDbLinetypeTableRecord
  2
ByLayer
 70
     0
  3

 72
    65
 73
     0
 40
0.0
  0
LTYPE
  5
16
330
5
100
AcDbSymbolTableRecord
100
AcDbLinetypeTableRecord
  2
Continuous
 70
     0
  3
Solid line
 72
    65
 73
     0
 40
0.0
  0
ENDTAB
  0
TABLE
  2
LAYER
  5
2
330
0
100
AcDbSymbolTable
 70
     3
  0
LAYER
  5
10
330
2
100
AcDbSymbolTableRecord
100
AcDbLayerTableRecord
  2
0
 70
     0
 62
     7
  6
Continuous
370
    -3
390
F
347
3E
  0
LAYER
  5
3F
330
2
100
AcDbSymbolTableRecord
100
AcDbLayerTableRecord
  2
ProfileEdges
 70
     0
 62
     7
  6
Continuous
370
    -3
390
F
347
3E
  0
LAYER
  5
40
330
2
100
AcDbSymbolTableRecord
100
AcDbLayerTableRecord
  2
SectionCutEdges
 70
     0
 62
     7
  6
Continuous
370
    -3
390
F
347
3E
  0
ENDTAB
  0
TABLE
  2
STYLE
  5
3
330
0
100
AcDbSymbolTable
 70
     1
  0
STYLE
  5
11
330
3
100
AcDbSymbolTableRecord
100
AcDbTextStyleTableRecord
  2
Standard
 70
     0
 40
0.0
 41
1.0
 50
0.0
 71
     0
 42
0.2
  3
txt
  4

  0
ENDTAB
  0
TABLE
  2
VIEW
  5
6
330
0
100
AcDbSymbolTable
 70
     0
  0
ENDTAB
  0
TABLE
  2
UCS
  5
7
330
0
100
AcDbSymbolTable
 70
     0
  0
ENDTAB
  0
TABLE
  2
APPID
  5
9
330
0
100
AcDbSymbolTable
 70
     1
  0
APPID
  5
12
330
9
100
AcDbSymbolTableRecord
100
AcDbRegAppTableRecord
  2
ACAD
 70
     0
  0
ENDTAB
  0
TABLE
  2
DIMSTYLE
  5
A
330
0
100
AcDbSymbolTable
 70
     1
100
AcDbDimStyleTable
  0
DIMSTYLE
105
27
330
A
100
AcDbSymbolTableRecord
100
AcDbDimStyleTableRecord
  2
Standard
 70
     0
178
     0
340
11
  0
ENDTAB
  0
TABLE
  2
BLOCK_RECORD
  5
1
330
0
100
AcDbSymbolTable
 70
     1
  0
BLOCK_RECORD
  5
1F
330
1
100
AcDbSymbolTableRecord
100
AcDbBlockTableRecord
  2
*Model_Space
340
22
 70
     0
280
     1
281
     0
  0
BLOCK_RECORD
  5
1B
330
1
100
AcDbSymbolTableRecord
100
AcDbBlockTableRecord
  2
*Paper_Space
340
1E
 70
     0
280
     1
281
     0
  0
BLOCK_RECORD
  5
23
330
1
100
AcDbSymbolTableRecord
100
AcDbBlockTableRecord
  2
*Paper_Space0
340
26
 70
     0
280
     1
281
     0
  0
ENDTAB
  0
ENDSEC
  0
SECTION
  2
BLOCKS
  0
BLOCK
  5
20
330
1F
100
AcDbEntity
  8
0
100
AcDbBlockBegin
  2
*Model_Space
 70
     0
 10
0.0
 20
0.0
 30
0.0
  3
*Model_Space
  1

  0
ENDBLK
  5
21
330
1F
100
AcDbEntity
  8
0
100
AcDbBlockEnd
  0
BLOCK
  5
1C
330
1B
100
AcDbEntity
 67
     1
  8
0
100
AcDbBlockBegin
  2
*Paper_Space
 70
     0
 10
0.0
 20
0.0
 30
0.0
  3
*Paper_Space
  1

  0
ENDBLK
  5
1D
330
1B
100
AcDbEntity
 67
     1
  8
0
100
AcDbBlockEnd
  0
BLOCK
  5
24
330
23
100
AcDbEntity
  8
0
100
AcDbBlockBegin
  2
*Paper_Space0
 70
     0
 10
0.0
 20
0.0
 30
0.0
  3
*Paper_Space0
  1

  0
ENDBLK
  5
25
330
23
100
AcDbEntity
  8
0
100
AcDbBlockEnd
  0
ENDSEC
  0
SECTION
  2
ENTITIES
  0
LINE
  5
3BF
330
1F
100
AcDbEntity
  8
0
100
AcDbLine
 10
31.16454545990358
 20
90.6731805633419
 30
0.0
 11
31.05620280291177
 21
90.3863056694233
 31
0.0
  0
LINE
  5
3C0
330
1F
100
AcDbEntity
  8
0
100
AcDbLine
 10
31.03581801930014
 20
90.30460142304216
 30
0.0
 11
31.00541573493089
 21
89.99946041106577
 31
0.0
  0
LINE
  5
3C1
330
1F
100
AcDbEntity
  8
0
100
AcDbLine
 10
31.00687216100629
 20
89.91526419913978
 30
0.0
 11
31.05648211469718
 21
89.61265192480242
 31
0.0
  0
LINE
  5
3C2
330
1F
100
AcDbEntity
  8
0
100
AcDbLine
 10
31.07968049742943
 20
89.53170158003348
 30
0.0
 11
31.20592185282076
 21
89.25224056974079
 31
0.0
  0
LINE
  5
3C3
330
1F
100
AcDbEntity
  8
0
100
AcDbLine
 10
31.24928126076379
 20
89.18005272434817
 30
0.0
 11
31.44355087810935
 21
88.94278778412047
 31
0.0
  0
LINE
  5
3C4
330
1F
100
AcDbEntity
  8
0
100
AcDbLine
 10
31.50411643926666
 20
88.88428192047161
 30
0.0
 11
31.75317516519007
 21
88.70538226388655
 31
0.0
  0
LINE
  5
3C5
330
1F
100
AcDbEntity
  8
0
100
AcDbLine
 10
31.82681943665811
 20
88.66454545990358
 30
0.0
 11
32.11369433057669
 21
88.55620280291177
 31
0.0
  0
LINE
  5
3C6
330
1F
100
AcDbEntity
  8
0
100
AcDbLine
 10
32.19539857695783
 20
88.53581801930014
 30
0.0
 11
32.50053958893421
 21
88.50541573493086
 31
0.0
  0
LINE
  5
3C7
330
1F
100
AcDbEntity
  8
0
100
AcDbLine
 10
32.5847358008602
 20
88.50687216100627
 30
0.0
 11
32.88734807519758
 21
88.55648211469716
 31
0.0
  0
LINE
  5
3C8
330
1F
100
AcDbEntity
  8
0
100
AcDbLine
 10
32.96829841996651
 20
88.57968049742942
 30
0.0
 11
33.24775943025918
 21
88.70592185282075
 31
0.0
  0
LINE
  5
3C9
330
1F
100
AcDbEntity
  8
0
100
AcDbLine
 10
33.31994727565181
 20
88.74928126076378
 30
0.0
 11
33.55721221587952
 21
88.94355087810935
 31
0.0
  0
LINE
  5
3CA
330
1F
100
AcDbEntity
  8
0
100
AcDbLine
 10
33.61571807952841
 20
89.00411643926665
 30
0.0
 11
33.79461773611345
 21
89.25317516519007
 31
0.0
  0
LINE
  5
3CB
330
1F
100
AcDbEntity
  8
0
100
AcDbLine
 10
33.83545454009642
 20
89.3268194366581
 30
0.0
 11
33.94379719708822
 21
89.61369433057669
 31
0.0
  0
LINE
  5
3CC
330
1F
100
AcDbEntity
  8
0
100
AcDbLine
 10
33.96418198069985
 20
89.69539857695781
 30
0.0
 11
33.99458426506911
 21
90.0005395889342
 31
0.0
  0
LINE
  5
3CD
330
1F
100
AcDbEntity
  8
0
100
AcDbLine
 10
33.9931278389937
 20
90.08473580086022
 30
0.0
 11
33.94351788530282
 21
90.38734807519756
 31
0.0
  0
LINE
  5
3CE
330
1F
100
AcDbEntity
  8
0
100
AcDbLine
 10
33.92031950257056
 20
90.46829841996652
 30
0.0
 11
33.79407814717923
 21
90.7477594302592
 31
0.0
  0
LINE
  5
3CF
330
1F
100
AcDbEntity
  8
0
100
AcDbLine
 10
33.75071873923621
 20
90.81994727565183
 30
0.0
 11
33.55644912189064
 21
91.05721221587952
 31
0.0
  0
LINE
  5
3D0
330
1F
100
AcDbEntity
  8
0
100
AcDbLine
 10
33.49588356073333
 20
91.11571807952839
 30
0.0
 11
33.24682483480993
 21
91.29461773611344
 31
0.0
  0
LINE
  5
3D1
330
1F
100
AcDbEntity
  8
0
100
AcDbLine
 10
33.17318056334187
 20
91.3354545400964
 30
0.0
 11
32.8863056694233
 21
91.44379719708823
 31
0.0
  0
LINE
  5
3D2
330
1F
100
AcDbEntity
  8
0
100
AcDbLine
 10
32.80460142304217
 20
91.46418198069985
 30
0.0
 11
32.49946041106578
 21
91.49458426506911
 31
0.0
  0
LINE
  5
3D3
330
1F
100
AcDbEntity
  8
0
100
AcDbLine
 10
32.41526419913978
 20
91.49312783899371
 30
0.0
 11
32.11265192480242
 21
91.44351788530282
 31
0.0
  0
LINE
  5
3D4
330
1F
100
AcDbEntity
  8
0
100
AcDbLine
 10
32.03170158003348
 20
91.42031950257058
 30
0.0
 11
31.75224056974081
 21
91.29407814717922
 31
0.0
  0
LINE
  5
3D5
330
1F
100
AcDbEntity
  8
0
100
AcDbLine
 10
31.68005272434819
 20
91.25071873923619
 30
0.0
 11
31.44278778412048
 21
91.05644912189064
 31
0.0
  0
LINE
  5
3D6
330
1F
100
AcDbEntity
  8
0
100
AcDbLine
 10
31.38428192047159
 20
90.99588356073333
 30
0.0
 11
31.20538226388654
 21
90.74682483480991
 31
0.0
  0
LINE
  5
3D7
330
1F
100
AcDbEntity
  8
0
100
AcDbLine
 10
13.5
 20
50.0
 30
0.0
 11
13.55111126056639
 21
49.61177143234622
 31
0.0
  0
LINE
  5
3D8
330
1F
100
AcDbEntity
  8
0
100
AcDbLine
 10
13.55111126056639
 20
49.61177143234622
 30
0.0
 11
13.70096189432333
 21
49.25
 31
0.0
  0
LINE
  5
3D9
330
1F
100
AcDbEntity
  8
0
100
AcDbLine
 10
13.70096189432333
 20
49.25
 30
0.0
 11
13.93933982822017
 21
48.93933982822018
 31
0.0
  0
LINE
  5
3DA
330
1F
100
AcDbEntity
  8
0
100
AcDbLine
 10
13.93933982822017
 20
48.93933982822018
 30
0.0
 11
14.24999999999999
 21
48.70096189432334
 31
0.0
  0
LINE
  5
3DB
330
1F
100
AcDbEntity
  8
0
100
AcDbLine
 10
14.24999999999999
 20
48.70096189432334
 30
0.0
 11
14.61177143234622
 21
48.55111126056639
 31
0.0
  0
LINE
  5
3DC
330
1F
100
AcDbEntity
  8
0
100
AcDbLine
 10
14.61177143234622
 20
48.55111126056639
 30
0.0
 11
14.99999999999999
 21
48.5
 31
0.0
  0
LINE
  5
3DD
330
1F
100
AcDbEntity
  8
0
100
AcDbLine
 10
14.99999999999999
 20
48.5
 30
0.0
 11
15.38822856765378
 21
48.55111126056639
 31
0.0
  0
LINE
  5
3DE
330
1F
100
AcDbEntity
  8
0
100
AcDbLine
 10
15.38822856765378
 20
48.55111126056639
 30
0.0
 11
15.74999999999999
 21
48.70096189432333
 31
0.0
  0
LINE
  5
3DF
330
1F
100
AcDbEntity
  8
0
100
AcDbLine
 10
15.74999999999999
 20
48.70096189432333
 30
0.0
 11
16.06066017177982
 21
48.93933982822018
 31
0.0
  0
LINE
  5
3E0
330
1F
100
AcDbEntity
  8
0
100
AcDbLine
 10
16.06066017177982
 20
48.93933982822018
 30
0.0
 11
16.29903810567666
 21
49.25
 31
0.0
  0
LINE
  5
3E1
330
1F
100
AcDbEntity
  8
0
100
AcDbLine
 10
16.29903810567666
 20
49.25
 30
0.0
 11
16.4488887394336
 21
49.61177143234622
 31
0.0
  0
LINE
  5
3E2
330
1F
100
AcDbEntity
  8
0
100
AcDbLine
 10
16.4488887394336
 20
49.61177143234622
 30
0.0
 11
16.49999999999999
 21
50.0
 31
0.0
  0
LINE
  5
3E3
330
1F
100
AcDbEntity
  8
0
100
AcDbLine
 10
16.49999999999999
 20
50.0
 30
0.0
 11
16.4488887394336
 21
50.38822856765378
 31
0.0
  0
LINE
  5
3E4
330
1F
100
AcDbEntity
  8
0
100
AcDbLine
 10
16.4488887394336
 20
50.38822856765378
 30
0.0
 11
16.29903810567666
 21
50.75
 31
0.0
  0
LINE
  5
3E5
330
1F
100
AcDbEntity
  8
0
100
AcDbLine
 10
16.29903810567666
 20
50.75
 30
0.0
 11
16.06066017177982
 21
51.06066017177982
 31
0.0
  0
LINE
  5
3E6
330
1F
100
AcDbEntity
  8
0
100
AcDbLine
 10
16.06066017177982
 20
51.06066017177982
 30
0.0
 11
15.75
 21
51.29903810567666
 31
0.0
  0
LINE
  5
3E7
330
1F
100
AcDbEntity
  8
0
100
AcDbLine
 10
15.75
 20
51.29903810567666
 30
0.0
 11
15.38822856765378
 21
51.4488887394336
 31
0.0
  0
LINE
  5
3E8
330
1F
100
AcDbEntity
  8
0
100
AcDbLine
 10
15.38822856765378
 20
51.4488887394336
 30
0.0
 11
14.99999999999999
 21
51.49999999999999
 31
0.0
  0
LINE
  5
3E9
330
1F
100
AcDbEntity
  8
0
100
AcDbLine
 10
14.99999999999999
 20
51.49999999999999
 30
0.0
 11
14.61177143234622
 21
51.4488887394336
 31
0.0
  0
LINE
  5
3EA
330
1F
100
AcDbEntity
  8
0
100
AcDbLine
 10
14.61177143234622
 20
51.4488887394336
 30
0.0
 11
14.25
 21
51.29903810567666
 31
0.0
  0
LINE
  5
3EB
330
1F
100
AcDbEntity
  8
0
100
AcDbLine
 10
14.25
 20
51.29903810567666
 30
0.0
 11
13.93933982822017
 21
51.06066017177982
 31
0.0
  0
LINE
  5
3EC
330
1F
100
AcDbEntity
  8
0
100
AcDbLine
 10
13.93933982822017
 20
51.06066017177982
 30
0.0
 11
13.70096189432334
 21
50.75
 31
0.0
  0
LINE
  5
3ED
330
1F
100
AcDbEntity
  8
0
100
AcDbLine
 10
13.70096189432334
 20
50.75
 30
0.0
 11
13.55111126056639
 21
50.38822856765378
 31
0.0
  0
LINE
  5
3EE
330
1F
100
AcDbEntity
  8
0
100
AcDbLine
 10
13.55111126056639
 20
50.38822856765378
 30
0.0
 11
13.5
 21
50.0
 31
0.0
  0
LINE
  5
3EF
330
1F
100
AcDbEntity
  8
0
100
AcDbLine
 10
100.0
 20
100.0
 30
0.0
 11
0.0
 21
100.0
 31
0.0
  0
LINE
  5
3F0
330
1F
100
AcDbEntity
  8
0
100
AcDbLine
 10
0.0
 20
0.0
 30
0.0
 11
100.0
 21
0.0
 31
0.0
  0
LINE
  5
3F1
330
1F
100
AcDbEntity
  8
0
100
AcDbLine
 10
100.0
 20
0.0
 30
0.0
 11
100.0
 21
100.0
 31
0.0
  0
LINE
  5
3F2
330
1F
100
AcDbEntity
  8
0
100
AcDbLine
 10
0.0
 20
100.0
 30
0.0
 11
0.0
 21
0.0
 31
0.0
  0
LINE
  5
3F3
330
1F
100
AcDbEntity
  8
0
100
AcDbLine
 10
48.44708572938486
 20
9.204445042265597
 30
0.0
 11
46.99999999999999
 21
9.803847577293375
 31
0.0
  0
LINE
  5
3F4
330
1F
100
AcDbEntity
  8
0
100
AcDbLine
 10
54.24264068711928
 20
45.75735931288072
 30
0.0
 11
52.99999999999999
 21
44.80384757729337
 31
0.0
  0
LINE
  5
3F5
330
1F
100
AcDbEntity
  8
0
100
AcDbLine
 10
55.7955549577344
 20
48.44708572938487
 30
0.0
 11
55.19615242270663
 21
47.00000000000001
 31
0.0
  0
LINE
  5
3F6
330
1F
100
AcDbEntity
  8
0
100
AcDbLine
 10
54.24264068711928
 20
54.24264068711928
 30
0.0
 11
55.19615242270662
 21
53.00000000000001
 31
0.0
  0
LINE
  5
3F7
330
1F
100
AcDbEntity
  8
0
100
AcDbLine
 10
44.80384757729337
 20
82.0
 30
0.0
 11
44.20444504226559
 21
83.44708572938487
 31
0.0
  0
LINE
  5
3F8
330
1F
100
AcDbEntity
  8
0
100
AcDbLine
 10
48.44708572938486
 20
55.79555495773441
 30
0.0
 11
49.99999999999999
 21
56.0
 31
0.0
  0
LINE
  5
3F9
330
1F
100
AcDbEntity
  8
0
100
AcDbLine
 10
44.20444504226559
 20
48.44708572938487
 30
0.0
 11
43.99999999999999
 21
50.0
 31
0.0
  0
LINE
  5
3FA
330
1F
100
AcDbEntity
  8
0
100
AcDbLine
 10
43.99999999999999
 20
50.0
 30
0.0
 11
44.20444504226559
 21
51.55291427061513
 31
0.0
  0
LINE
  5
3FB
330
1F
100
AcDbEntity
  8
0
100
AcDbLine
 10
44.20444504226559
 20
86.55291427061512
 30
0.0
 11
44.80384757729337
 21
88.0
 31
0.0
  0
LINE
  5
3FC
330
1F
100
AcDbEntity
  8
0
100
AcDbLine
 10
51.55291427061513
 20
9.204445042265597
 30
0.0
 11
49.99999999999999
 21
9.000000000000007
 31
0.0
  0
LINE
  5
3FD
330
1F
100
AcDbEntity
  8
0
100
AcDbLine
 10
44.80384757729337
 20
88.0
 30
0.0
 11
45.7573593128807
 21
89.24264068711929
 31
0.0
  0
LINE
  5
3FE
330
1F
100
AcDbEntity
  8
0
100
AcDbLine
 10
45.7573593128807
 20
89.24264068711929
 30
0.0
 11
46.99999999999999
 21
90.19615242270663
 31
0.0
  0
LINE
  5
3FF
330
1F
100
AcDbEntity
  8
0
100
AcDbLine
 10
46.99999999999999
 20
90.19615242270663
 30
0.0
 11
48.44708572938486
 21
90.79555495773441
 31
0.0
  0
LINE
  5
400
330
1F
100
AcDbEntity
  8
0
100
AcDbLine
 10
48.44708572938486
 20
90.79555495773441
 30
0.0
 11
49.99999999999999
 21
91.0
 31
0.0
  0
LINE
  5
401
330
1F
100
AcDbEntity
  8
0
100
AcDbLine
 10
49.99999999999999
 20
91.0
 30
0.0
 11
51.55291427061511
 21
90.79555495773441
 31
0.0
  0
LINE
  5
402
330
1F
100
AcDbEntity
  8
0
100
AcDbLine
 10
51.55291427061511
 20
90.79555495773441
 30
0.0
 11
52.99999999999999
 21
90.19615242270663
 31
0.0
  0
LINE
  5
403
330
1F
100
AcDbEntity
  8
0
100
AcDbLine
 10
52.99999999999999
 20
90.19615242270663
 30
0.0
 11
54.24264068711928
 21
89.24264068711929
 31
0.0
  0
LINE
  5
404
330
1F
100
AcDbEntity
  8
0
100
AcDbLine
 10
54.24264068711928
 20
89.24264068711929
 30
0.0
 11
55.19615242270662
 21
88.0
 31
0.0
  0
LINE
  5
405
330
1F
100
AcDbEntity
  8
0
100
AcDbLine
 10
55.19615242270662
 20
88.0
 30
0.0
 11
55.7955549577344
 21
86.55291427061513
 31
0.0
  0
LINE
  5
406
330
1F
100
AcDbEntity
  8
0
100
AcDbLine
 10
85.0
 20
44.0
 30
0.0
 11
83.44708572938487
 21
44.20444504226559
 31
0.0
  0
LINE
  5
407
330
1F
100
AcDbEntity
  8
0
100
AcDbLine
 10
55.7955549577344
 20
86.55291427061513
 30
0.0
 11
55.99999999999999
 21
85.0
 31
0.0
  0
LINE
  5
408
330
1F
100
AcDbEntity
  8
0
100
AcDbLine
 10
55.99999999999999
 20
85.0
 30
0.0
 11
55.7955549577344
 21
83.4470857293849
 31
0.0
  0
LINE
  5
409
330
1F
100
AcDbEntity
  8
0
100
AcDbLine
 10
55.7955549577344
 20
83.4470857293849
 30
0.0
 11
55.19615242270663
 21
82.0
 31
0.0
  0
LINE
  5
40A
330
1F
100
AcDbEntity
  8
0
100
AcDbLine
 10
55.19615242270663
 20
82.0
 30
0.0
 11
54.24264068711928
 21
80.75735931288072
 31
0.0
  0
LINE
  5
40B
330
1F
100
AcDbEntity
  8
0
100
AcDbLine
 10
54.24264068711928
 20
80.75735931288072
 30
0.0
 11
52.99999999999999
 21
79.80384757729337
 31
0.0
  0
LINE
  5
40C
330
1F
100
AcDbEntity
  8
0
100
AcDbLine
 10
52.99999999999999
 20
79.80384757729337
 30
0.0
 11
51.55291427061513
 21
79.20444504226559
 31
0.0
  0
LINE
  5
40D
330
1F
100
AcDbEntity
  8
0
100
AcDbLine
 10
51.55291427061513
 20
79.20444504226559
 30
0.0
 11
49.99999999999999
 21
79.0
 31
0.0
  0
LINE
  5
40E
330
1F
100
AcDbEntity
  8
0
100
AcDbLine
 10
85.0
 20
9.000000000000007
 30
0.0
 11
83.44708572938487
 21
9.204445042265597
 31
0.0
  0
LINE
  5
40F
330
1F
100
AcDbEntity
  8
0
100
AcDbLine
 10
48.44708572938486
 20
79.20444504226559
 30
0.0
 11
46.99999999999999
 21
79.80384757729337
 31
0.0
  0
LINE
  5
410
330
1F
100
AcDbEntity
  8
0
100
AcDbLine
 10
46.99999999999999
 20
79.80384757729337
 30
0.0
 11
45.7573593128807
 21
80.75735931288072
 31
0.0
  0
LINE
  5
411
330
1F
100
AcDbEntity
  8
0
100
AcDbLine
 10
43.99999999999999
 20
85.0
 30
0.0
 11
44.20444504226559
 21
86.55291427061512
 31
0.0
  0
LINE
  5
412
330
1F
100
AcDbEntity
  8
0
100
AcDbLine
 10
55.7955549577344
 20
16.55291427061514
 30
0.0
 11
55.99999999999999
 21
15.00000000000001
 31
0.0
  0
LINE
  5
413
330
1F
100
AcDbEntity
  8
0
100
AcDbLine
 10
52.99999999999999
 20
9.803847577293375
 30
0.0
 11
51.55291427061513
 21
9.204445042265597
 31
0.0
  0
LINE
  5
414
330
1F
100
AcDbEntity
  8
0
100
AcDbLine
 10
54.24264068711928
 20
10.75735931288072
 30
0.0
 11
52.99999999999999
 21
9.803847577293375
 31
0.0
  0
LINE
  5
415
330
1F
100
AcDbEntity
  8
0
100
AcDbLine
 10
55.19615242270663
 20
12.00000000000001
 30
0.0
 11
54.24264068711928
 21
10.75735931288072
 31
0.0
  0
LINE
  5
416
330
1F
100
AcDbEntity
  8
0
100
AcDbLine
 10
55.7955549577344
 20
13.44708572938489
 30
0.0
 11
55.19615242270663
 21
12.00000000000001
 31
0.0
  0
LINE
  5
417
330
1F
100
AcDbEntity
  8
0
100
AcDbLine
 10
55.99999999999999
 20
15.00000000000001
 30
0.0
 11
55.7955549577344
 21
13.44708572938489
 31
0.0
  0
LINE
  5
418
330
1F
100
AcDbEntity
  8
0
100
AcDbLine
 10
55.19615242270662
 20
18.00000000000001
 30
0.0
 11
55.7955549577344
 21
16.55291427061514
 31
0.0
  0
LINE
  5
419
330
1F
100
AcDbEntity
  8
0
100
AcDbLine
 10
54.24264068711928
 20
19.24264068711929
 30
0.0
 11
55.19615242270662
 21
18.00000000000001
 31
0.0
  0
LINE
  5
41A
330
1F
100
AcDbEntity
  8
0
100
AcDbLine
 10
52.99999999999999
 20
20.19615242270664
 30
0.0
 11
54.24264068711928
 21
19.24264068711929
 31
0.0
  0
LINE
  5
41B
330
1F
100
AcDbEntity
  8
0
100
AcDbLine
 10
44.20444504226559
 20
13.44708572938488
 30
0.0
 11
43.99999999999999
 21
15.00000000000001
 31
0.0
  0
LINE
  5
41C
330
1F
100
AcDbEntity
  8
0
100
AcDbLine
 10
51.55291427061511
 20
20.79555495773442
 30
0.0
 11
52.99999999999999
 21
20.19615242270664
 31
0.0
  0
LINE
  5
41D
330
1F
100
AcDbEntity
  8
0
100
AcDbLine
 10
48.44708572938486
 20
20.79555495773442
 30
0.0
 11
49.99999999999999
 21
21.00000000000001
 31
0.0
  0
LINE
  5
41E
330
1F
100
AcDbEntity
  8
0
100
AcDbLine
 10
49.99999999999999
 20
21.00000000000001
 30
0.0
 11
51.55291427061511
 21
20.79555495773442
 31
0.0
  0
LINE
  5
41F
330
1F
100
AcDbEntity
  8
0
100
AcDbLine
 10
46.99999999999999
 20
20.19615242270664
 30
0.0
 11
48.44708572938486
 21
20.79555495773442
 31
0.0
  0
LINE
  5
420
330
1F
100
AcDbEntity
  8
0
100
AcDbLine
 10
45.7573593128807
 20
19.24264068711929
 30
0.0
 11
46.99999999999999
 21
20.19615242270664
 31
0.0
  0
LINE
  5
421
330
1F
100
AcDbEntity
  8
0
100
AcDbLine
 10
44.80384757729337
 20
18.00000000000001
 30
0.0
 11
45.7573593128807
 21
19.24264068711929
 31
0.0
  0
LINE
  5
422
330
1F
100
AcDbEntity
  8
0
100
AcDbLine
 10
44.20444504226559
 20
16.55291427061513
 30
0.0
 11
44.80384757729337
 21
18.00000000000001
 31
0.0
  0
LINE
  5
423
330
1F
100
AcDbEntity
  8
0
100
AcDbLine
 10
43.99999999999999
 20
15.00000000000001
 30
0.0
 11
44.20444504226559
 21
16.55291427061513
 31
0.0
  0
LINE
  5
424
330
1F
100
AcDbEntity
  8
0
100
AcDbLine
 10
44.80384757729337
 20
12.00000000000001
 30
0.0
 11
44.20444504226559
 21
13.44708572938488
 31
0.0
  0
LINE
  5
425
330
1F
100
AcDbEntity
  8
0
100
AcDbLine
 10
45.7573593128807
 20
10.75735931288072
 30
0.0
 11
44.80384757729337
 21
12.00000000000001
 31
0.0
  0
LINE
  5
426
330
1F
100
AcDbEntity
  8
0
100
AcDbLine
 10
46.99999999999999
 20
9.803847577293375
 30
0.0
 11
45.7573593128807
 21
10.75735931288072
 31
0.0
  0
LINE
  5
427
330
1F
100
AcDbEntity
  8
0
100
AcDbLine
 10
85.0
 20
79.0
 30
0.0
 11
83.44708572938487
 21
79.20444504226559
 31
0.0
  0
LINE
  5
428
330
1F
100
AcDbEntity
  8
0
100
AcDbLine
 10
51.55291427061513
 20
44.20444504226559
 30
0.0
 11
49.99999999999999
 21
44.0
 31
0.0
  0
LINE
  5
429
330
1F
100
AcDbEntity
  8
0
100
AcDbLine
 10
52.99999999999999
 20
44.80384757729337
 30
0.0
 11
51.55291427061513
 21
44.20444504226559
 31
0.0
  0
LINE
  5
42A
330
1F
100
AcDbEntity
  8
0
100
AcDbLine
 10
55.19615242270663
 20
47.00000000000001
 30
0.0
 11
54.24264068711928
 21
45.75735931288072
 31
0.0
  0
LINE
  5
42B
330
1F
100
AcDbEntity
  8
0
100
AcDbLine
 10
55.99999999999999
 20
50.0
 30
0.0
 11
55.7955549577344
 21
48.44708572938487
 31
0.0
  0
LINE
  5
42C
330
1F
100
AcDbEntity
  8
0
100
AcDbLine
 10
55.7955549577344
 20
51.55291427061513
 30
0.0
 11
55.99999999999999
 21
50.0
 31
0.0
  0
LINE
  5
42D
330
1F
100
AcDbEntity
  8
0
100
AcDbLine
 10
55.19615242270662
 20
53.00000000000001
 30
0.0
 11
55.7955549577344
 21
51.55291427061513
 31
0.0
  0
LINE
  5
42E
330
1F
100
AcDbEntity
  8
0
100
AcDbLine
 10
44.20444504226559
 20
83.44708572938487
 30
0.0
 11
43.99999999999999
 21
85.0
 31
0.0
  0
LINE
  5
42F
330
1F
100
AcDbEntity
  8
0
100
AcDbLine
 10
52.99999999999999
 20
55.19615242270663
 30
0.0
 11
54.24264068711928
 21
54.24264068711928
 31
0.0
  0
LINE
  5
430
330
1F
100
AcDbEntity
  8
0
100
AcDbLine
 10
51.55291427061511
 20
55.79555495773441
 30
0.0
 11
52.99999999999999
 21
55.19615242270663
 31
0.0
  0
LINE
  5
431
330
1F
100
AcDbEntity
  8
0
100
AcDbLine
 10
49.99999999999999
 20
56.0
 30
0.0
 11
51.55291427061511
 21
55.79555495773441
 31
0.0
  0
LINE
  5
432
330
1F
100
AcDbEntity
  8
0
100
AcDbLine
 10
45.7573593128807
 20
45.75735931288072
 30
0.0
 11
44.80384757729337
 21
46.99999999999999
 31
0.0
  0
LINE
  5
433
330
1F
100
AcDbEntity
  8
0
100
AcDbLine
 10
46.99999999999999
 20
55.19615242270663
 30
0.0
 11
48.44708572938486
 21
55.79555495773441
 31
0.0
  0
LINE
  5
434
330
1F
100
AcDbEntity
  8
0
100
AcDbLine
 10
45.7573593128807
 20
54.24264068711928
 30
0.0
 11
46.99999999999999
 21
55.19615242270663
 31
0.0
  0
LINE
  5
435
330
1F
100
AcDbEntity
  8
0
100
AcDbLine
 10
44.80384757729337
 20
52.99999999999999
 30
0.0
 11
45.7573593128807
 21
54.24264068711928
 31
0.0
  0
LINE
  5
436
330
1F
100
AcDbEntity
  8
0
100
AcDbLine
 10
44.20444504226559
 20
51.55291427061513
 30
0.0
 11
44.80384757729337
 21
52.99999999999999
 31
0.0
  0
LINE
  5
437
330
1F
100
AcDbEntity
  8
0
100
AcDbLine
 10
44.80384757729337
 20
46.99999999999999
 30
0.0
 11
44.20444504226559
 21
48.44708572938487
 31
0.0
  0
LINE
  5
438
330
1F
100
AcDbEntity
  8
0
100
AcDbLine
 10
46.99999999999999
 20
44.80384757729337
 30
0.0
 11
45.7573593128807
 21
45.75735931288072
 31
0.0
  0
LINE
  5
439
330
1F
100
AcDbEntity
  8
0
100
AcDbLine
 10
49.99999999999999
 20
9.000000000000007
 30
0.0
 11
48.44708572938486
 21
9.204445042265597
 31
0.0
  0
LINE
  5
43A
330
1F
100
AcDbEntity
  8
0
100
AcDbLine
 10
45.7573593128807
 20
80.75735931288072
 30
0.0
 11
44.80384757729337
 21
82.0
 31
0.0
  0
LINE
  5
43B
330
1F
100
AcDbEntity
  8
0
100
AcDbLine
 10
79.80384757729335
 20
82.0
 30
0.0
 11
79.20444504226558
 21
83.44708572938487
 31
0.0
  0
LINE
  5
43C
330
1F
100
AcDbEntity
  8
0
100
AcDbLine
 10
79.20444504226558
 20
83.44708572938487
 30
0.0
 11
79.0
 21
85.0
 31
0.0
  0
LINE
  5
43D
330
1F
100
AcDbEntity
  8
0
100
AcDbLine
 10
79.0
 20
85.0
 30
0.0
 11
79.20444504226558
 21
86.55291427061512
 31
0.0
  0
LINE
  5
43E
330
1F
100
AcDbEntity
  8
0
100
AcDbLine
 10
79.20444504226558
 20
86.55291427061512
 30
0.0
 11
79.80384757729335
 21
88.0
 31
0.0
  0
LINE
  5
43F
330
1F
100
AcDbEntity
  8
0
100
AcDbLine
 10
79.80384757729335
 20
88.0
 30
0.0
 11
80.75735931288071
 21
89.24264068711929
 31
0.0
  0
LINE
  5
440
330
1F
100
AcDbEntity
  8
0
100
AcDbLine
 10
80.75735931288071
 20
89.24264068711929
 30
0.0
 11
81.99999999999999
 21
90.19615242270663
 31
0.0
  0
LINE
  5
441
330
1F
100
AcDbEntity
  8
0
100
AcDbLine
 10
81.99999999999999
 20
90.19615242270663
 30
0.0
 11
83.44708572938487
 21
90.79555495773441
 31
0.0
  0
LINE
  5
442
330
1F
100
AcDbEntity
  8
0
100
AcDbLine
 10
83.44708572938487
 20
90.79555495773441
 30
0.0
 11
85.0
 21
91.0
 31
0.0
  0
LINE
  5
443
330
1F
100
AcDbEntity
  8
0
100
AcDbLine
 10
85.0
 20
91.0
 30
0.0
 11
86.55291427061512
 21
90.79555495773441
 31
0.0
  0
LINE
  5
444
330
1F
100
AcDbEntity
  8
0
100
AcDbLine
 10
86.55291427061512
 20
90.79555495773441
 30
0.0
 11
87.99999999999999
 21
90.19615242270663
 31
0.0
  0
LINE
  5
445
330
1F
100
AcDbEntity
  8
0
100
AcDbLine
 10
87.99999999999999
 20
90.19615242270663
 30
0.0
 11
89.24264068711928
 21
89.24264068711929
 31
0.0
  0
LINE
  5
446
330
1F
100
AcDbEntity
  8
0
100
AcDbLine
 10
89.24264068711928
 20
89.24264068711929
 30
0.0
 11
90.19615242270663
 21
88.0
 31
0.0
  0
LINE
  5
447
330
1F
100
AcDbEntity
  8
0
100
AcDbLine
 10
90.19615242270663
 20
88.0
 30
0.0
 11
90.7955549577344
 21
86.55291427061513
 31
0.0
  0
LINE
  5
448
330
1F
100
AcDbEntity
  8
0
100
AcDbLine
 10
90.7955549577344
 20
86.55291427061513
 30
0.0
 11
91.0
 21
85.0
 31
0.0
  0
LINE
  5
449
330
1F
100
AcDbEntity
  8
0
100
AcDbLine
 10
91.0
 20
85.0
 30
0.0
 11
90.7955549577344
 21
83.4470857293849
 31
0.0
  0
LINE
  5
44A
330
1F
100
AcDbEntity
  8
0
100
AcDbLine
 10
90.7955549577344
 20
83.4470857293849
 30
0.0
 11
90.19615242270663
 21
82.0
 31
0.0
  0
LINE
  5
44B
330
1F
100
AcDbEntity
  8
0
100
AcDbLine
 10
90.19615242270663
 20
82.0
 30
0.0
 11
89.24264068711928
 21
80.75735931288072
 31
0.0
  0
LINE
  5
44C
330
1F
100
AcDbEntity
  8
0
100
AcDbLine
 10
89.24264068711928
 20
80.75735931288072
 30
0.0
 11
88.0
 21
79.80384757729337
 31
0.0
  0
LINE
  5
44D
330
1F
100
AcDbEntity
  8
0
100
AcDbLine
 10
88.0
 20
79.80384757729337
 30
0.0
 11
86.55291427061512
 21
79.20444504226559
 31
0.0
  0
LINE
  5
44E
330
1F
100
AcDbEntity
  8
0
100
AcDbLine
 10
86.55291427061512
 20
79.20444504226559
 30
0.0
 11
85.0
 21
79.0
 31
0.0
  0
LINE
  5
44F
330
1F
100
AcDbEntity
  8
0
100
AcDbLine
 10
83.44708572938487
 20
44.20444504226559
 30
0.0
 11
82.0
 21
44.80384757729337
 31
0.0
  0
LINE
  5
450
330
1F
100
AcDbEntity
  8
0
100
AcDbLine
 10
82.0
 20
44.80384757729337
 30
0.0
 11
80.75735931288071
 21
45.75735931288072
 31
0.0
  0
LINE
  5
451
330
1F
100
AcDbEntity
  8
0
100
AcDbLine
 10
80.75735931288071
 20
45.75735931288072
 30
0.0
 11
79.80384757729335
 21
46.99999999999999
 31
0.0
  0
LINE
  5
452
330
1F
100
AcDbEntity
  8
0
100
AcDbLine
 10
79.80384757729335
 20
46.99999999999999
 30
0.0
 11
79.20444504226558
 21
48.44708572938487
 31
0.0
  0
LINE
  5
453
330
1F
100
AcDbEntity
  8
0
100
AcDbLine
 10
79.20444504226558
 20
48.44708572938487
 30
0.0
 11
79.0
 21
50.0
 31
0.0
  0
LINE
  5
454
330
1F
100
AcDbEntity
  8
0
100
AcDbLine
 10
79.0
 20
50.0
 30
0.0
 11
79.20444504226558
 21
51.55291427061513
 31
0.0
  0
LINE
  5
455
330
1F
100
AcDbEntity
  8
0
100
AcDbLine
 10
79.20444504226558
 20
51.55291427061513
 30
0.0
 11
79.80384757729335
 21
52.99999999999999
 31
0.0
  0
LINE
  5
456
330
1F
100
AcDbEntity
  8
0
100
AcDbLine
 10
79.80384757729335
 20
52.99999999999999
 30
0.0
 11
80.75735931288071
 21
54.24264068711928
 31
0.0
  0
LINE
  5
457
330
1F
100
AcDbEntity
  8
0
100
AcDbLine
 10
80.75735931288071
 20
54.24264068711928
 30
0.0
 11
81.99999999999999
 21
55.19615242270663
 31
0.0
  0
LINE
  5
458
330
1F
100
AcDbEntity
  8
0
100
AcDbLine
 10
81.99999999999999
 20
55.19615242270663
 30
0.0
 11
83.44708572938487
 21
55.79555495773441
 31
0.0
  0
LINE
  5
459
330
1F
100
AcDbEntity
  8
0
100
AcDbLine
 10
83.44708572938487
 20
55.79555495773441
 30
0.0
 11
85.0
 21
56.0
 31
0.0
  0
LINE
  5
45A
330
1F
100
AcDbEntity
  8
0
100
AcDbLine
 10
85.0
 20
56.0
 30
0.0
 11
86.55291427061512
 21
55.79555495773441
 31
0.0
  0
LINE
  5
45B
330
1F
100
AcDbEntity
  8
0
100
AcDbLine
 10
86.55291427061512
 20
55.79555495773441
 30
0.0
 11
87.99999999999999
 21
55.19615242270663
 31
0.0
  0
LINE
  5
45C
330
1F
100
AcDbEntity
  8
0
100
AcDbLine
 10
87.99999999999999
 20
55.19615242270663
 30
0.0
 11
89.24264068711928
 21
54.24264068711928
 31
0.0
  0
LINE
  5
45D
330
1F
100
AcDbEntity
  8
0
100
AcDbLine
 10
89.24264068711928
 20
54.24264068711928
 30
0.0
 11
90.19615242270663
 21
53.00000000000001
 31
0.0
  0
LINE
  5
45E
330
1F
100
AcDbEntity
  8
0
100
AcDbLine
 10
90.19615242270663
 20
53.00000000000001
 30
0.0
 11
90.7955549577344
 21
51.55291427061513
 31
0.0
  0
LINE
  5
45F
330
1F
100
AcDbEntity
  8
0
100
AcDbLine
 10
90.7955549577344
 20
51.55291427061513
 30
0.0
 11
91.0
 21
50.0
 31
0.0
  0
LINE
  5
460
330
1F
100
AcDbEntity
  8
0
100
AcDbLine
 10
91.0
 20
50.0
 30
0.0
 11
90.7955549577344
 21
48.44708572938487
 31
0.0
  0
LINE
  5
461
330
1F
100
AcDbEntity
  8
0
100
AcDbLine
 10
90.7955549577344
 20
48.44708572938487
 30
0.0
 11
90.19615242270663
 21
47.00000000000001
 31
0.0
  0
LINE
  5
462
330
1F
100
AcDbEntity
  8
0
100
AcDbLine
 10
90.19615242270663
 20
47.00000000000001
 30
0.0
 11
89.24264068711928
 21
45.75735931288072
 31
0.0
  0
LINE
  5
463
330
1F
100
AcDbEntity
  8
0
100
AcDbLine
 10
89.24264068711928
 20
45.75735931288072
 30
0.0
 11
88.0
 21
44.80384757729337
 31
0.0
  0
LINE
  5
464
330
1F
100
AcDbEntity
  8
0
100
AcDbLine
 10
88.0
 20
44.80384757729337
 30
0.0
 11
86.55291427061512
 21
44.20444504226559
 31
0.0
  0
LINE
  5
465
330
1F
100
AcDbEntity
  8
0
100
AcDbLine
 10
86.55291427061512
 20
44.20444504226559
 30
0.0
 11
85.0
 21
44.0
 31
0.0
  0
LINE
  5
466
330
1F
100
AcDbEntity
  8
0
100
AcDbLine
 10
83.44708572938487
 20
9.204445042265597
 30
0.0
 11
82.0
 21
9.803847577293375
 31
0.0
  0
LINE
  5
467
330
1F
100
AcDbEntity
  8
0
100
AcDbLine
 10
82.0
 20
9.803847577293375
 30
0.0
 11
80.75735931288071
 21
10.75735931288072
 31
0.0
  0
LINE
  5
468
330
1F
100
AcDbEntity
  8
0
100
AcDbLine
 10
80.75735931288071
 20
10.75735931288072
 30
0.0
 11
79.80384757729335
 21
12.00000000000001
 31
0.0
  0
LINE
  5
469
330
1F
100
AcDbEntity
  8
0
100
AcDbLine
 10
79.80384757729335
 20
12.00000000000001
 30
0.0
 11
79.20444504226558
 21
13.44708572938488
 31
0.0
  0
LINE
  5
46A
330
1F
100
AcDbEntity
  8
0
100
AcDbLine
 10
79.20444504226558
 20
13.44708572938488
 30
0.0
 11
79.0
 21
15.00000000000001
 31
0.0
  0
LINE
  5
46B
330
1F
100
AcDbEntity
  8
0
100
AcDbLine
 10
79.0
 20
15.00000000000001
 30
0.0
 11
79.20444504226558
 21
16.55291427061513
 31
0.0
  0
LINE
  5
46C
330
1F
100
AcDbEntity
  8
0
100
AcDbLine
 10
79.20444504226558
 20
16.55291427061513
 30
0.0
 11
79.80384757729335
 21
18.00000000000001
 31
0.0
  0
LINE
  5
46D
330
1F
100
AcDbEntity
  8
0
100
AcDbLine
 10
79.80384757729335
 20
18.00000000000001
 30
0.0
 11
80.75735931288071
 21
19.24264068711929
 31
0.0
  0
LINE
  5
46E
330
1F
100
AcDbEntity
  8
0
100
AcDbLine
 10
80.75735931288071
 20
19.24264068711929
 30
0.0
 11
81.99999999999999
 21
20.19615242270664
 31
0.0
  0
LINE
  5
46F
330
1F
100
AcDbEntity
  8
0
100
AcDbLine
 10
81.99999999999999
 20
20.19615242270664
 30
0.0
 11
83.44708572938487
 21
20.79555495773442
 31
0.0
  0
LINE
  5
470
330
1F
100
AcDbEntity
  8
0
100
AcDbLine
 10
83.44708572938487
 20
20.79555495773442
 30
0.0
 11
85.0
 21
21.00000000000001
 31
0.0
  0
LINE
  5
471
330
1F
100
AcDbEntity
  8
0
100
AcDbLine
 10
85.0
 20
21.00000000000001
 30
0.0
 11
86.55291427061512
 21
20.79555495773442
 31
0.0
  0
LINE
  5
472
330
1F
100
AcDbEntity
  8
0
100
AcDbLine
 10
86.55291427061512
 20
20.79555495773442
 30
0.0
 11
87.99999999999999
 21
20.19615242270664
 31
0.0
  0
LINE
  5
473
330
1F
100
AcDbEntity
  8
0
100
AcDbLine
 10
87.99999999999999
 20
20.19615242270664
 30
0.0
 11
89.24264068711928
 21
19.24264068711929
 31
0.0
  0
LINE
  5
474
330
1F
100
AcDbEntity
  8
0
100
AcDbLine
 10
89.24264068711928
 20
19.24264068711929
 30
0.0
 11
90.19615242270663
 21
18.00000000000001
 31
0.0
  0
LINE
  5
475
330
1F
100
AcDbEntity
  8
0
100
AcDbLine
 10
90.19615242270663
 20
18.00000000000001
 30
0.0
 11
90.7955549577344
 21
16.55291427061514
 31
0.0
  0
LINE
  5
476
330
1F
100
AcDbEntity
  8
0
100
AcDbLine
 10
90.7955549577344
 20
16.55291427061514
 30
0.0
 11
91.0
 21
15.00000000000001
 31
0.0
  0
LINE
  5
477
330
1F
100
AcDbEntity
  8
0
100
AcDbLine
 10
91.0
 20
15.00000000000001
 30
0.0
 11
90.7955549577344
 21
13.44708572938489
 31
0.0
  0
LINE
  5
478
330
1F
100
AcDbEntity
  8
0
100
AcDbLine
 10
90.7955549577344
 20
13.44708572938489
 30
0.0
 11
90.19615242270663
 21
12.00000000000001
 31
0.0
  0
LINE
  5
479
330
1F
100
AcDbEntity
  8
0
100
AcDbLine
 10
90.19615242270663
 20
12.00000000000001
 30
0.0
 11
89.24264068711928
 21
10.75735931288072
 31
0.0
  0
LINE
  5
47A
330
1F
100
AcDbEntity
  8
0
100
AcDbLine
 10
89.24264068711928
 20
10.75735931288072
 30
0.0
 11
88.0
 21
9.803847577293375
 31
0.0
  0
LINE
  5
47B
330
1F
100
AcDbEntity
  8
0
100
AcDbLine
 10
88.0
 20
9.803847577293375
 30
0.0
 11
86.55291427061512
 21
9.204445042265597
 31
0.0
  0
LINE
  5
47C
330
1F
100
AcDbEntity
  8
0
100
AcDbLine
 10
86.55291427061512
 20
9.204445042265597
 30
0.0
 11
85.0
 21
9.000000000000007
 31
0.0
  0
LINE
  5
47D
330
1F
100
AcDbEntity
  8
0
100
AcDbLine
 10
83.44708572938487
 20
79.20444504226559
 30
0.0
 11
82.0
 21
79.80384757729337
 31
0.0
  0
LINE
  5
47E
330
1F
100
AcDbEntity
  8
0
100
AcDbLine
 10
80.75735931288071
 20
80.75735931288072
 30
0.0
 11
79.80384757729335
 21
82.0
 31
0.0
  0
LINE
  5
47F
330
1F
100
AcDbEntity
  8
0
100
AcDbLine
 10
82.0
 20
79.80384757729337
 30
0.0
 11
80.75735931288071
 21
80.75735931288072
 31
0.0
  0
LINE
  5
480
330
1F
100
AcDbEntity
  8
0
100
AcDbLine
 10
48.44708572938486
 20
44.20444504226559
 30
0.0
 11
46.99999999999999
 21
44.80384757729337
 31
0.0
  0
LINE
  5
481
330
1F
100
AcDbEntity
  8
0
100
AcDbLine
 10
49.99999999999999
 20
44.0
 30
0.0
 11
48.44708572938486
 21
44.20444504226559
 31
0.0
  0
LINE
  5
482
330
1F
100
AcDbEntity
  8
0
100
AcDbLine
 10
49.99999999999999
 20
79.0
 30
0.0
 11
48.44708572938486
 21
79.20444504226559
 31
0.0
  0
LINE
  5
483
330
1F
100
AcDbEntity
  8
0
100
AcDbLine
 10
70.69163914843637
 20
89.26638437714585
 30
0.0
 11
70.54634676838972
 21
89.63001042956725
 31
0.0
  0
LINE
  5
484
330
1F
100
AcDbEntity
  8
0
100
AcDbLine
 10
70.54634676838972
 20
89.63001042956725
 30
0.0
 11
70.50011845380178
 21
90.01885065977697
 31
0.0
  0
LINE
  5
485
330
1F
100
AcDbEntity
  8
0
100
AcDbLine
 10
70.50011845380178
 20
90.01885065977697
 30
0.0
 11
70.55610458791578
 21
90.40640624867508
 31
0.0
  0
LINE
  5
486
330
1F
100
AcDbEntity
  8
0
100
AcDbLine
 10
70.55610458791578
 20
90.40640624867508
 30
0.0
 11
70.71048980821334
 21
90.76626592334406
 31
0.0
  0
LINE
  5
487
330
1F
100
AcDbEntity
  8
0
100
AcDbLine
 10
70.71048980821334
 20
90.76626592334406
 30
0.0
 11
70.95275301706482
 21
91.07390584165148
 31
0.0
  0
LINE
  5
488
330
1F
100
AcDbEntity
  8
0
100
AcDbLine
 10
70.95275301706482
 20
91.07390584165148
 30
0.0
 11
71.26638437714585
 21
91.30836085156363
 31
0.0
  0
LINE
  5
489
330
1F
100
AcDbEntity
  8
0
100
AcDbLine
 10
71.26638437714585
 20
91.30836085156363
 30
0.0
 11
71.63001042956726
 21
91.45365323161028
 31
0.0
  0
LINE
  5
48A
330
1F
100
AcDbEntity
  8
0
100
AcDbLine
 10
71.63001042956726
 20
91.45365323161028
 30
0.0
 11
72.01885065977697
 21
91.4998815461982
 31
0.0
  0
LINE
  5
48B
330
1F
100
AcDbEntity
  8
0
100
AcDbLine
 10
72.01885065977697
 20
91.4998815461982
 30
0.0
 11
72.40640624867508
 21
91.44389541208419
 31
0.0
  0
LINE
  5
48C
330
1F
100
AcDbEntity
  8
0
100
AcDbLine
 10
72.40640624867508
 20
91.44389541208419
 30
0.0
 11
72.76626592334406
 21
91.28951019178663
 31
0.0
  0
LINE
  5
48D
330
1F
100
AcDbEntity
  8
0
100
AcDbLine
 10
72.76626592334406
 20
91.28951019178663
 30
0.0
 11
73.07390584165145
 21
91.04724698293518
 31
0.0
  0
LINE
  5
48E
330
1F
100
AcDbEntity
  8
0
100
AcDbLine
 10
73.07390584165145
 20
91.04724698293518
 30
0.0
 11
73.30836085156362
 21
90.73361562285413
 31
0.0
  0
LINE
  5
48F
330
1F
100
AcDbEntity
  8
0
100
AcDbLine
 10
73.30836085156362
 20
90.73361562285413
 30
0.0
 11
73.45365323161026
 21
90.36998957043274
 31
0.0
  0
LINE
  5
490
330
1F
100
AcDbEntity
  8
0
100
AcDbLine
 10
73.45365323161026
 20
90.36998957043274
 30
0.0
 11
73.49988154619821
 21
89.98114934022301
 31
0.0
  0
LINE
  5
491
330
1F
100
AcDbEntity
  8
0
100
AcDbLine
 10
73.49988154619821
 20
89.98114934022301
 30
0.0
 11
73.4438954120842
 21
89.5935937513249
 31
0.0
  0
LINE
  5
492
330
1F
100
AcDbEntity
  8
0
100
AcDbLine
 10
73.4438954120842
 20
89.5935937513249
 30
0.0
 11
73.28951019178665
 21
89.23373407665594
 31
0.0
  0
LINE
  5
493
330
1F
100
AcDbEntity
  8
0
100
AcDbLine
 10
73.28951019178665
 20
89.23373407665594
 30
0.0
 11
73.04724698293516
 21
88.92609415834852
 31
0.0
  0
LINE
  5
494
330
1F
100
AcDbEntity
  8
0
100
AcDbLine
 10
73.04724698293516
 20
88.92609415834852
 30
0.0
 11
72.73361562285413
 21
88.69163914843637
 31
0.0
  0
LINE
  5
495
330
1F
100
AcDbEntity
  8
0
100
AcDbLine
 10
72.73361562285413
 20
88.69163914843637
 30
0.0
 11
72.36998957043272
 21
88.54634676838972
 31
0.0
  0
LINE
  5
496
330
1F
100
AcDbEntity
  8
0
100
AcDbLine
 10
72.36998957043272
 20
88.54634676838972
 30
0.0
 11
71.98114934022301
 21
88.50011845380179
 31
0.0
  0
LINE
  5
497
330
1F
100
AcDbEntity
  8
0
100
AcDbLine
 10
71.98114934022301
 20
88.50011845380179
 30
0.0
 11
71.5935937513249
 21
88.5561045879158
 31
0.0
  0
LINE
  5
498
330
1F
100
AcDbEntity
  8
0
100
AcDbLine
 10
71.5935937513249
 20
88.5561045879158
 30
0.0
 11
71.2337340766559
 21
88.71048980821334
 31
0.0
  0
LINE
  5
499
330
1F
100
AcDbEntity
  8
0
100
AcDbLine
 10
71.2337340766559
 20
88.71048980821334
 30
0.0
 11
70.92609415834852
 21
88.95275301706482
 31
0.0
  0
LINE
  5
49A
330
1F
100
AcDbEntity
  8
0
100
AcDbLine
 10
70.92609415834852
 20
88.95275301706482
 30
0.0
 11
70.69163914843637
 21
89.26638437714585
 31
0.0
  0
LINE
  5
49B
330
1F
100
AcDbEntity
  8
0
100
AcDbLine
 10
33.99999999999999
 20
10.0
 30
0.0
 11
33.9488887394336
 21
9.611771432346224
 31
0.0
  0
LINE
  5
49C
330
1F
100
AcDbEntity
  8
0
100
AcDbLine
 10
33.9488887394336
 20
9.611771432346224
 30
0.0
 11
33.79903810567666
 21
9.25
 31
0.0
  0
LINE
  5
49D
330
1F
100
AcDbEntity
  8
0
100
AcDbLine
 10
33.79903810567666
 20
9.25
 30
0.0
 11
33.56066017177982
 21
8.939339828220177
 31
0.0
  0
LINE
  5
49E
330
1F
100
AcDbEntity
  8
0
100
AcDbLine
 10
33.56066017177982
 20
8.939339828220177
 30
0.0
 11
33.25
 21
8.700961894323342
 31
0.0
  0
LINE
  5
49F
330
1F
100
AcDbEntity
  8
0
100
AcDbLine
 10
33.25
 20
8.700961894323342
 30
0.0
 11
32.88822856765378
 21
8.551111260566394
 31
0.0
  0
LINE
  5
4A0
330
1F
100
AcDbEntity
  8
0
100
AcDbLine
 10
32.88822856765378
 20
8.551111260566394
 30
0.0
 11
32.5
 21
8.499999999999993
 31
0.0
  0
LINE
  5
4A1
330
1F
100
AcDbEntity
  8
0
100
AcDbLine
 10
32.5
 20
8.499999999999993
 30
0.0
 11
32.11177143234622
 21
8.551111260566394
 31
0.0
  0
LINE
  5
4A2
330
1F
100
AcDbEntity
  8
0
100
AcDbLine
 10
32.11177143234622
 20
8.551111260566394
 30
0.0
 11
31.75
 21
8.700961894323342
 31
0.0
  0
LINE
  5
4A3
330
1F
100
AcDbEntity
  8
0
100
AcDbLine
 10
31.75
 20
8.700961894323342
 30
0.0
 11
31.43933982822017
 21
8.939339828220177
 31
0.0
  0
LINE
  5
4A4
330
1F
100
AcDbEntity
  8
0
100
AcDbLine
 10
31.43933982822017
 20
8.939339828220177
 30
0.0
 11
31.20096189432333
 21
9.25
 31
0.0
  0
LINE
  5
4A5
330
1F
100
AcDbEntity
  8
0
100
AcDbLine
 10
31.20096189432333
 20
9.25
 30
0.0
 11
31.05111126056639
 21
9.611771432346217
 31
0.0
  0
LINE
  5
4A6
330
1F
100
AcDbEntity
  8
0
100
AcDbLine
 10
31.05111126056639
 20
9.611771432346217
 30
0.0
 11
31.0
 21
10.0
 31
0.0
  0
LINE
  5
4A7
330
1F
100
AcDbEntity
  8
0
100
AcDbLine
 10
31.0
 20
10.0
 30
0.0
 11
31.05111126056639
 21
10.38822856765378
 31
0.0
  0
LINE
  5
4A8
330
1F
100
AcDbEntity
  8
0
100
AcDbLine
 10
31.05111126056639
 20
10.38822856765378
 30
0.0
 11
31.20096189432333
 21
10.75
 31
0.0
  0
LINE
  5
4A9
330
1F
100
AcDbEntity
  8
0
100
AcDbLine
 10
31.20096189432333
 20
10.75
 30
0.0
 11
31.43933982822017
 21
11.06066017177982
 31
0.0
  0
LINE
  5
4AA
330
1F
100
AcDbEntity
  8
0
100
AcDbLine
 10
31.43933982822017
 20
11.06066017177982
 30
0.0
 11
31.75
 21
11.29903810567666
 31
0.0
  0
LINE
  5
4AB
330
1F
100
AcDbEntity
  8
0
100
AcDbLine
 10
31.75
 20
11.29903810567666
 30
0.0
 11
32.11177143234622
 21
11.4488887394336
 31
0.0
  0
LINE
  5
4AC
330
1F
100
AcDbEntity
  8
0
100
AcDbLine
 10
32.11177143234622
 20
11.4488887394336
 30
0.0
 11
32.5
 21
11.5
 31
0.0
  0
LINE
  5
4AD
330
1F
100
AcDbEntity
  8
0
100
AcDbLine
 10
32.5
 20
11.5
 30
0.0
 11
32.88822856765378
 21
11.4488887394336
 31
0.0
  0
LINE
  5
4AE
330
1F
100
AcDbEntity
  8
0
100
AcDbLine
 10
32.88822856765378
 20
11.4488887394336
 30
0.0
 11
33.25
 21
11.29903810567666
 31
0.0
  0
LINE
  5
4AF
330
1F
100
AcDbEntity
  8
0
100
AcDbLine
 10
33.25
 20
11.29903810567666
 30
0.0
 11
33.56066017177982
 21
11.06066017177982
 31
0.0
  0
LINE
  5
4B0
330
1F
100
AcDbEntity
  8
0
100
AcDbLine
 10
33.56066017177982
 20
11.06066017177982
 30
0.0
 11
33.79903810567666
 21
10.75
 31
0.0
  0
LINE
  5
4B1
330
1F
100
AcDbEntity
  8
0
100
AcDbLine
 10
33.79903810567666
 20
10.75
 30
0.0
 11
33.9488887394336
 21
10.38822856765378
 31
0.0
  0
LINE
  5
4B2
330
1F
100
AcDbEntity
  8
0
100
AcDbLine
 10
33.9488887394336
 20
10.38822856765378
 30
0.0
 11
33.99999999999999
 21
10.0
 31
0.0
  0
LINE
  5
4E4
330
1F
100
AcDbEntity
  8
0
100
AcDbLine
 10
33.49588356073333
 20
91.11571807952839
 30
0.0
 11
33.55644912189064
 21
91.05721221587952
 31
0.0
  0
LINE
  5
4E5
330
1F
100
AcDbEntity
  8
0
100
AcDbLine
 10
33.75071873923621
 20
90.81994727565183
 30
0.0
 11
33.79407814717923
 21
90.7477594302592
 31
0.0
  0
LINE
  5
4E6
330
1F
100
AcDbEntity
  8
0
100
AcDbLine
 10
33.92031950257056
 20
90.46829841996652
 30
0.0
 11
33.94351788530282
 21
90.38734807519756
 31
0.0
  0
LINE
  5
4E7
330
1F
100
AcDbEntity
  8
0
100
AcDbLine
 10
33.9931278389937
 20
90.08473580086022
 30
0.0
 11
33.99458426506911
 21
90.0005395889342
 31
0.0
  0
LINE
  5
4E8
330
1F
100
AcDbEntity
  8
0
100
AcDbLine
 10
33.96418198069985
 20
89.69539857695781
 30
0.0
 11
33.94379719708822
 21
89.61369433057669
 31
0.0
  0
LINE
  5
4E9
330
1F
100
AcDbEntity
  8
0
100
AcDbLine
 10
33.83545454009642
 20
89.3268194366581
 30
0.0
 11
33.79461773611345
 21
89.25317516519007
 31
0.0
  0
LINE
  5
4EA
330
1F
100
AcDbEntity
  8
0
100
AcDbLine
 10
33.61571807952841
 20
89.00411643926665
 30
0.0
 11
33.55721221587952
 21
88.94355087810935
 31
0.0
  0
LINE
  5
4EB
330
1F
100
AcDbEntity
  8
0
100
AcDbLine
 10
33.31994727565181
 20
88.74928126076378
 30
0.0
 11
33.24775943025918
 21
88.70592185282075
 31
0.0
  0
LINE
  5
4EC
330
1F
100
AcDbEntity
  8
0
100
AcDbLine
 10
32.96829841996651
 20
88.57968049742942
 30
0.0
 11
32.88734807519758
 21
88.55648211469716
 31
0.0
  0
LINE
  5
4ED
330
1F
100
AcDbEntity
  8
0
100
AcDbLine
 10
32.5847358008602
 20
88.50687216100627
 30
0.0
 11
32.50053958893421
 21
88.50541573493086
 31
0.0
  0
LINE
  5
4EE
330
1F
100
AcDbEntity
  8
0
100
AcDbLine
 10
32.19539857695783
 20
88.53581801930014
 30
0.0
 11
32.11369433057669
 21
88.55620280291177
 31
0.0
  0
LINE
  5
4EF
330
1F
100
AcDbEntity
  8
0
100
AcDbLine
 10
31.82681943665811
 20
88.66454545990358
 30
0.0
 11
31.75317516519007
 21
88.70538226388655
 31
0.0
  0
LINE
  5
4F0
330
1F
100
AcDbEntity
  8
0
100
AcDbLine
 10
31.50411643926666
 20
88.88428192047161
 30
0.0
 11
31.44355087810935
 21
88.94278778412047
 31
0.0
  0
LINE
  5
4F1
330
1F
100
AcDbEntity
  8
0
100
AcDbLine
 10
31.24928126076379
 20
89.18005272434817
 30
0.0
 11
31.20592185282076
 21
89.25224056974079
 31
0.0
  0
LINE
  5
4F2
330
1F
100
AcDbEntity
  8
0
100
AcDbLine
 10
31.07968049742943
 20
89.53170158003348
 30
0.0
 11
31.05648211469718
 21
89.61265192480242
 31
0.0
  0
LINE
  5
4F3
330
1F
100
AcDbEntity
  8
0
100
AcDbLine
 10
31.00687216100629
 20
89.91526419913978
 30
0.0
 11
31.00541573493089
 21
89.99946041106577
 31
0.0
  0
LINE
  5
4F4
330
1F
100
AcDbEntity
  8
0
100
AcDbLine
 10
31.03581801930014
 20
90.30460142304216
 30
0.0
 11
31.05620280291177
 21
90.3863056694233
 31
0.0
  0
LINE
  5
4F5
330
1F
100
AcDbEntity
  8
0
100
AcDbLine
 10
31.16454545990358
 20
90.6731805633419
 30
0.0
 11
31.20538226388654
 21
90.74682483480991
 31
0.0
  0
LINE
  5
4F6
330
1F
100
AcDbEntity
  8
0
100
AcDbLine
 10
31.38428192047159
 20
90.99588356073333
 30
0.0
 11
31.44278778412048
 21
91.05644912189064
 31
0.0
  0
LINE
  5
4F7
330
1F
100
AcDbEntity
  8
0
100
AcDbLine
 10
31.68005272434819
 20
91.25071873923619
 30
0.0
 11
31.75224056974081
 21
91.29407814717922
 31
0.0
  0
LINE
  5
4F8
330
1F
100
AcDbEntity
  8
0
100
AcDbLine
 10
32.03170158003348
 20
91.42031950257058
 30
0.0
 11
32.11265192480242
 21
91.44351788530282
 31
0.0
  0
LINE
  5
4F9
330
1F
100
AcDbEntity
  8
0
100
AcDbLine
 10
32.41526419913978
 20
91.49312783899371
 30
0.0
 11
32.49946041106578
 21
91.49458426506911
 31
0.0
  0
LINE
  5
4FA
330
1F
100
AcDbEntity
  8
0
100
AcDbLine
 10
32.80460142304217
 20
91.46418198069985
 30
0.0
 11
32.8863056694233
 21
91.44379719708823
 31
0.0
  0
LINE
  5
4FB
330
1F
100
AcDbEntity
  8
0
100
AcDbLine
 10
33.17318056334187
 20
91.3354545400964
 30
0.0
 11
33.24682483480993
 21
91.29461773611344
 31
0.0
  0
LINE
  5
4FD
330
1F
100
AcDbEntity
  8
0
100
AcDbLine
 10
70.55111126056639
 20
9.611771432346224
 30
0.0
 11
70.5
 21
10.0
 31
0.0
  0
LINE
  5
4FE
330
1F
100
AcDbEntity
  8
0
100
AcDbLine
 10
70.70096189432334
 20
9.25
 30
0.0
 11
70.55111126056639
 21
9.611771432346224
 31
0.0
  0
LINE
  5
4FF
330
1F
100
AcDbEntity
  8
0
100
AcDbLine
 10
70.93933982822017
 20
8.939339828220177
 30
0.0
 11
70.70096189432334
 21
9.25
 31
0.0
  0
LINE
  5
500
330
1F
100
AcDbEntity
  8
0
100
AcDbLine
 10
71.25
 20
8.700961894323342
 30
0.0
 11
70.93933982822017
 21
8.939339828220177
 31
0.0
  0
LINE
  5
501
330
1F
100
AcDbEntity
  8
0
100
AcDbLine
 10
71.61177143234622
 20
8.551111260566401
 30
0.0
 11
71.25
 21
8.700961894323342
 31
0.0
  0
LINE
  5
502
330
1F
100
AcDbEntity
  8
0
100
AcDbLine
 10
72.0
 20
8.5
 30
0.0
 11
71.61177143234622
 21
8.551111260566401
 31
0.0
  0
LINE
  5
503
330
1F
100
AcDbEntity
  8
0
100
AcDbLine
 10
72.38822856765377
 20
8.551111260566394
 30
0.0
 11
72.0
 21
8.5
 31
0.0
  0
LINE
  5
504
330
1F
100
AcDbEntity
  8
0
100
AcDbLine
 10
72.75
 20
8.700961894323342
 30
0.0
 11
72.38822856765377
 21
8.551111260566394
 31
0.0
  0
LINE
  5
505
330
1F
100
AcDbEntity
  8
0
100
AcDbLine
 10
73.06066017177982
 20
8.939339828220177
 30
0.0
 11
72.75
 21
8.700961894323342
 31
0.0
  0
LINE
  5
506
330
1F
100
AcDbEntity
  8
0
100
AcDbLine
 10
73.29903810567664
 20
9.25
 30
0.0
 11
73.06066017177982
 21
8.939339828220177
 31
0.0
  0
LINE
  5
507
330
1F
100
AcDbEntity
  8
0
100
AcDbLine
 10
73.4488887394336
 20
9.611771432346224
 30
0.0
 11
73.29903810567664
 21
9.25
 31
0.0
  0
LINE
  5
508
330
1F
100
AcDbEntity
  8
0
100
AcDbLine
 10
73.49999999999999
 20
10.0
 30
0.0
 11
73.4488887394336
 21
9.611771432346224
 31
0.0
  0
LINE
  5
509
330
1F
100
AcDbEntity
  8
0
100
AcDbLine
 10
73.4488887394336
 20
10.38822856765378
 30
0.0
 11
73.49999999999999
 21
10.0
 31
0.0
  0
LINE
  5
50A
330
1F
100
AcDbEntity
  8
0
100
AcDbLine
 10
73.29903810567664
 20
10.75
 30
0.0
 11
73.4488887394336
 21
10.38822856765378
 31
0.0
  0
LINE
  5
50B
330
1F
100
AcDbEntity
  8
0
100
AcDbLine
 10
73.06066017177982
 20
11.06066017177982
 30
0.0
 11
73.29903810567664
 21
10.75
 31
0.0
  0
LINE
  5
50C
330
1F
100
AcDbEntity
  8
0
100
AcDbLine
 10
72.75
 20
11.29903810567666
 30
0.0
 11
73.06066017177982
 21
11.06066017177982
 31
0.0
  0
LINE
  5
50D
330
1F
100
AcDbEntity
  8
0
100
AcDbLine
 10
72.38822856765377
 20
11.4488887394336
 30
0.0
 11
72.75
 21
11.29903810567666
 31
0.0
  0
LINE
  5
50E
330
1F
100
AcDbEntity
  8
0
100
AcDbLine
 10
72.0
 20
11.49999999999999
 30
0.0
 11
72.38822856765377
 21
11.4488887394336
 31
0.0
  0
LINE
  5
50F
330
1F
100
AcDbEntity
  8
0
100
AcDbLine
 10
71.61177143234622
 20
11.4488887394336
 30
0.0
 11
72.0
 21
11.49999999999999
 31
0.0
  0
LINE
  5
510
330
1F
100
AcDbEntity
  8
0
100
AcDbLine
 10
71.25
 20
11.29903810567666
 30
0.0
 11
71.61177143234622
 21
11.4488887394336
 31
0.0
  0
LINE
  5
511
330
1F
100
AcDbEntity
  8
0
100
AcDbLine
 10
70.93933982822017
 20
11.06066017177982
 30
0.0
 11
71.25
 21
11.29903810567666
 31
0.0
  0
LINE
  5
512
330
1F
100
AcDbEntity
  8
0
100
AcDbLine
 10
70.70096189432334
 20
10.75
 30
0.0
 11
70.93933982822017
 21
11.06066017177982
 31
0.0
  0
LINE
  5
513
330
1F
100
AcDbEntity
  8
0
100
AcDbLine
 10
70.55111126056639
 20
10.38822856765378
 30
0.0
 11
70.70096189432334
 21
10.75
 31
0.0
  0
LINE
  5
514
330
1F
100
AcDbEntity
  8
0
100
AcDbLine
 10
70.5
 20
10.0
 30
0.0
 11
70.55111126056639
 21
10.38822856765378
 31
0.0
  0
LINE
  5
51A
330
1F
100
AcDbEntity
  8
0
100
AcDbLine
 10
14.99999999999999
 20
50.0
 30
0.0
 11
16.49999999999999
 21
50.0
 31
0.0
  0
LINE
  5
51B
330
1F
100
AcDbEntity
  8
0
100
AcDbLine
 10
33.99999999999999
 20
10.0
 30
0.0
 11
32.5
 21
10.0
 31
0.0
  0
LINE
  5
51D
330
1F
100
AcDbEntity
  8
0
100
AcDbLine
 10
49.99999999999999
 20
21.00000000000001
 30
0.0
 11
49.99999999999999
 21
15.00000000000001
 31
0.0
  0
LINE
  5
51E
330
1F
100
AcDbEntity
  8
0
100
AcDbLine
 10
85.0
 20
21.00000000000001
 30
0.0
 11
85.0
 21
15.00000000000001
 31
0.0
  0
LINE
  5
51F
330
1F
100
AcDbEntity
  8
0
100
AcDbLine
 10
85.0
 20
56.0
 30
0.0
 11
85.0
 21
50.0
 31
0.0
  0
LINE
  5
520
330
1F
100
AcDbEntity
  8
0
100
AcDbLine
 10
49.99999999999999
 20
56.0
 30
0.0
 11
49.99999999999999
 21
50.0
 31
0.0
  0
LINE
  5
521
330
1F
100
AcDbEntity
  8
0
100
AcDbLine
 10
49.99999999999999
 20
91.0
 30
0.0
 11
49.99999999999999
 21
85.0
 31
0.0
  0
LINE
  5
522
330
1F
100
AcDbEntity
  8
0
100
AcDbLine
 10
85.0
 20
91.0
 30
0.0
 11
85.0
 21
85.0
 31
0.0
  0
LINE
  5
523
330
1F
100
AcDbEntity
  8
0
100
AcDbLine
 10
72.0
 20
90.0
 30
0.0
 11
72.0
 21
91.4998815461982
 31
0.0
  0
LINE
  5
525
330
1F
100
AcDbEntity
  8
0
100
AcDbLine
 10
61.99999999999999
 20
15.00000000000001
 30
0.0
 11
61.99999999999999
 21
15.90000000000001
 31
0.0
  0
LINE
  5
526
330
1F
100
AcDbEntity
  8
0
100
AcDbLine
 10
97.0
 20
15.00000000000001
 30
0.0
 11
97.0
 21
15.50000000000001
 31
0.0
  0
LINE
  5
527
330
1F
100
AcDbEntity
  8
0
100
AcDbLine
 10
97.0
 20
50.0
 30
0.0
 11
97.0
 21
50.7
 31
0.0
  0
LINE
  5
528
330
1F
100
AcDbEntity
  8
0
100
AcDbLine
 10
97.0
 20
85.0
 30
0.0
 11
97.0
 21
85.80000000000001
 31
0.0
  0
LINE
  5
529
330
1F
100
AcDbEntity
  8
0
100
AcDbLine
 10
61.99999999999999
 20
85.0
 30
0.0
 11
61.99999999999999
 21
85.6
 31
0.0
  0
LINE
  5
52A
330
1F
100
AcDbEntity
  8
0
100
AcDbLine
 10
61.99999999999999
 20
50.0
 30
0.0
 11
61.99999999999999
 21
50.4
 31
0.0
  0
LINE
  5
52B
330
1F
100
AcDbEntity
  8
0
100
AcDbLine
 10
15.02221136810846
 20
15.00000000000001
 30
0.0
 11
17.72221136810846
 21
15.00000000000001
 31
0.0
  0
LINE
  5
52C
330
1F
100
AcDbEntity
  8
0
100
AcDbLine
 10
15.00174830685037
 20
85.0
 30
0.0
 11
17.72221136810846
 21
85.0
 31
0.0
  0
POINT
  5
5A6
330
1F
100
AcDbEntity
  8
0
100
AcDbPoint
 10
15.00174830685037
 20
85.0
 30
0.0
  0
LINE
  5
5A7
330
1F
100
AcDbEntity
  8
0
100
AcDbLine
 10
32.5
 20
90.0
 30
0.0
 11
31.79686712176203
 21
90.0
 31
0.0
  0
LINE
  5
5A8
330
1F
100
AcDbEntity
  8
0
100
AcDbLine
 10
31.79686712176203
 20
90.0
 30
0.0
 11
33.17387430730447
 21
90.0
 31
0.0
  0
LINE
  5
5A9
330
1F
100
AcDbEntity
  8
0
100
AcDbLine
 10
33.17387430730447
 20
90.0
 30
0.0
 11
32.5
 21
90.0
 31
0.0
  0
LINE
  5
5AA
330
1F
100
AcDbEntity
  8
0
100
AcDbLine
 10
32.5
 20
90.0
 30
0.0
 11
32.5
 21
89.44930067169196
 31
0.0
  0
LINE
  5
5AB
330
1F
100
AcDbEntity
  8
0
100
AcDbLine
 10
32.5
 20
90.0
 30
0.0
 11
32.5
 21
90.51716728253389
 31
0.0
  0
LINE
  5
5AC
330
1F
100
AcDbEntity
  8
0
100
AcDbLine
 10
15.00174830685037
 20
85.0
 30
0.0
 11
15.00174830685037
 21
87.4745399261837
 31
0.0
  0
LINE
  5
5AD
330
1F
100
AcDbEntity
  8
0
100
AcDbLine
 10
15.00174830685037
 20
87.4745399261837
 30
0.0
 11
15.00174830685037
 21
82.96170520131938
 31
0.0
  0
LINE
  5
5AE
330
1F
100
AcDbEntity
  8
0
100
AcDbLine
 10
15.00174830685037
 20
82.96170520131938
 30
0.0
 11
15.00174830685037
 21
85.0
 31
0.0
  0
LINE
  5
5AF
330
1F
100
AcDbEntity
  8
0
100
AcDbLine
 10
15.00174830685037
 20
85.0
 30
0.0
 11
13.09490626492737
 21
85.0
 31
0.0
  0
LINE
  5
5B0
330
1F
100
AcDbEntity
  8
0
100
AcDbLine
 10
15.02221136810846
 20
15.00000000000001
 30
0.0
 11
15.02221136810846
 21
17.5224410682976
 31
0.0
  0
LINE
  5
5B1
330
1F
100
AcDbEntity
  8
0
100
AcDbLine
 10
15.02221136810846
 20
17.5224410682976
 30
0.0
 11
15.02221136810846
 21
13.10077472171337
 31
0.0
  0
LINE
  5
5B2
330
1F
100
AcDbEntity
  8
0
100
AcDbLine
 10
15.02221136810846
 20
13.10077472171337
 30
0.0
 11
15.02221136810846
 21
15.00000000000001
 31
0.0
  0
LINE
  5
5B3
330
1F
100
AcDbEntity
  8
0
100
AcDbLine
 10
15.02221136810846
 20
15.00000000000001
 30
0.0
 11
13.42568098895578
 21
15.00000000000001
 31
0.0
  0
LINE
  5
5B4
330
1F
100
AcDbEntity
  8
0
100
AcDbLine
 10
32.5
 20
10.0
 30
0.0
 11
32.5
 21
11.5
 31
0.0
  0
LINE
  5
5B5
330
1F
100
AcDbEntity
  8
0
100
AcDbLine
 10
32.5
 20
10.0
 30
0.0
 11
32.5
 21
8.499999999999993
 31
0.0
  0
LINE
  5
5B6
330
1F
100
AcDbEntity
  8
0
100
AcDbLine
 10
32.5
 20
10.0
 30
0.0
 11
31.0
 21
10.0
 31
0.0
  0
LINE
  5
5B7
330
1F
100
AcDbEntity
  8
0
100
AcDbLine
 10
14.99999999999999
 20
50.0
 30
0.0
 11
14.99999999999999
 21
51.49999999999999
 31
0.0
  0
LINE
  5
5B8
330
1F
100
AcDbEntity
  8
0
100
AcDbLine
 10
14.99999999999999
 20
50.0
 30
0.0
 11
14.99999999999999
 21
48.5
 31
0.0
  0
LINE
  5
5B9
330
1F
100
AcDbEntity
  8
0
100
AcDbLine
 10
14.99999999999999
 20
50.0
 30
0.0
 11
13.5
 21
50.0
 31
0.0
  0
LINE
  5
5BA
330
1F
100
AcDbEntity
  8
0
100
AcDbLine
 10
33.17387430730447
 20
90.0
 30
0.0
 11
33.99458426506911
 21
90.0005395889342
 31
0.0
  0
LINE
  5
5BC
330
1F
100
AcDbEntity
  8
0
100
AcDbLine
 10
32.5
 20
90.51716728253389
 30
0.0
 11
32.49946041106578
 21
91.49458426506911
 31
0.0
  0
LINE
  5
5BD
330
1F
100
AcDbEntity
  8
0
100
AcDbLine
 10
32.5
 20
89.44930067169196
 30
0.0
 11
32.50053958893421
 21
88.50541573493086
 31
0.0
  0
LINE
  5
5BE
330
1F
100
AcDbEntity
  8
0
100
AcDbLine
 10
31.79686712176203
 20
90.0
 30
0.0
 11
31.00541573493089
 21
89.99946041106577
 31
0.0
  0
LINE
  5
5BF
330
1F
100
AcDbEntity
  8
0
100
AcDbLine
 10
49.99999999999999
 20
85.0
 30
0.0
 11
55.99999999999999
 21
85.0
 31
0.0
  0
LINE
  5
5C0
330
1F
100
AcDbEntity
  8
0
100
AcDbLine
 10
49.99999999999999
 20
85.0
 30
0.0
 11
49.99999999999999
 21
79.0
 31
0.0
  0
LINE
  5
5C1
330
1F
100
AcDbEntity
  8
0
100
AcDbLine
 10
49.99999999999999
 20
85.0
 30
0.0
 11
43.99999999999999
 21
85.0
 31
0.0
  0
LINE
  5
5C2
330
1F
100
AcDbEntity
  8
0
100
AcDbLine
 10
85.0
 20
85.0
 30
0.0
 11
91.0
 21
85.0
 31
0.0
  0
LINE
  5
5C3
330
1F
100
AcDbEntity
  8
0
100
AcDbLine
 10
91.0
 20
85.0
 30
0.0
 11
85.0
 21
85.0
 31
0.0
  0
LINE
  5
5C4
330
1F
100
AcDbEntity
  8
0
100
AcDbLine
 10
85.0
 20
85.0
 30
0.0
 11
85.0
 21
79.0
 31
0.0
  0
LINE
  5
5C5
330
1F
100
AcDbEntity
  8
0
100
AcDbLine
 10
85.0
 20
79.0
 30
0.0
 11
85.0
 21
85.0
 31
0.0
  0
LINE
  5
5C6
330
1F
100
AcDbEntity
  8
0
100
AcDbLine
 10
85.0
 20
85.0
 30
0.0
 11
79.0
 21
85.0
 31
0.0
  0
LINE
  5
5C7
330
1F
100
AcDbEntity
  8
0
100
AcDbLine
 10
72.0
 20
10.0
 30
0.0
 11
72.0
 21
11.49999999999999
 31
0.0
  0
LINE
  5
5C8
330
1F
100
AcDbEntity
  8
0
100
AcDbLine
 10
72.0
 20
11.49999999999999
 30
0.0
 11
72.0
 21
10.0
 31
0.0
  0
LINE
  5
5C9
330
1F
100
AcDbEntity
  8
0
100
AcDbLine
 10
72.0
 20
10.0
 30
0.0
 11
70.5
 21
10.0
 31
0.0
  0
LINE
  5
5CA
330
1F
100
AcDbEntity
  8
0
100
AcDbLine
 10
70.5
 20
10.0
 30
0.0
 11
72.0
 21
10.0
 31
0.0
  0
LINE
  5
5CB
330
1F
100
AcDbEntity
  8
0
100
AcDbLine
 10
72.0
 20
10.0
 30
0.0
 11
73.49999999999999
 21
10.0
 31
0.0
  0
LINE
  5
5CC
330
1F
100
AcDbEntity
  8
0
100
AcDbLine
 10
72.0
 20
10.0
 30
0.0
 11
72.0
 21
8.5
 31
0.0
  0
LINE
  5
5CD
330
1F
100
AcDbEntity
  8
0
100
AcDbLine
 10
72.0
 20
90.0
 30
0.0
 11
73.49988154619821
 21
89.98114934022301
 31
0.0
  0
LINE
  5
5CE
330
1F
100
AcDbEntity
  8
0
100
AcDbLine
 10
72.0
 20
90.0
 30
0.0
 11
70.50011845380178
 21
90.01885065977697
 31
0.0
  0
LINE
  5
5CF
330
1F
100
AcDbEntity
  8
0
100
AcDbLine
 10
72.0
 20
90.0
 30
0.0
 11
71.98114934022301
 21
88.50011845380179
 31
0.0
  0
LWPOLYLINE
  5
5D0
330
1F
100
AcDbEntity
  8
0
100
AcDbPolyline
 90
        4
 70
     1
 43
0.0
 10
6.976059189794881
 20
94.0987185079234
 10
6.976059189794881
 20
75.31861128775171
 10
23.8085997352821
 20
75.31861128775171
 10
23.8085997352821
 20
94.0987185079234
  0
LWPOLYLINE
  5
5D1
330
1F
100
AcDbEntity
  8
0
100
AcDbPolyline
 90
        4
 70
     1
 43
0.0
 10
5.44582823111422
 20
24.12543012461702
 10
5.44582823111422
 20
4.371539567103092
 10
24.78238307262435
 20
4.371539567103092
 10
24.78238307262435
 20
24.12543012461702
  0
LINE
  5
5D2
330
1F
100
AcDbEntity
  8
0
100
AcDbLine
 10
49.99999999999999
 20
50.0
 30
0.0
 11
55.99999999999999
 21
50.0
 31
0.0
  0
LINE
  5
5D3
330
1F
100
AcDbEntity
  8
0
100
AcDbLine
 10
55.99999999999999
 20
50.0
 30
0.0
 11
49.99999999999999
 21
50.0
 31
0.0
  0
LINE
  5
5D4
330
1F
100
AcDbEntity
  8
0
100
AcDbLine
 10
49.99999999999999
 20
50.0
 30
0.0
 11
43.99999999999999
 21
50.0
 31
0.0
  0
LINE
  5
5D5
330
1F
100
AcDbEntity
  8
0
100
AcDbLine
 10
49.99999999999999
 20
50.0
 30
0.0
 11
49.99999999999999
 21
44.0
 31
0.0
  0
LINE
  5
5D6
330
1F
100
AcDbEntity
  8
0
100
AcDbLine
 10
49.99999999999999
 20
15.00000000000001
 30
0.0
 11
55.99999999999999
 21
15.00000000000001
 31
0.0
  0
LINE
  5
5D7
330
1F
100
AcDbEntity
  8
0
100
AcDbLine
 10
49.99999999999999
 20
15.00000000000001
 30
0.0
 11
43.99999999999999
 21
15.00000000000001
 31
0.0
  0
LINE
  5
5D8
330
1F
100
AcDbEntity
  8
0
100
AcDbLine
 10
49.99999999999999
 20
15.00000000000001
 30
0.0
 11
49.99999999999999
 21
9.000000000000007
 31
0.0
  0
LINE
  5
5DB
330
1F
100
AcDbEntity
  8
0
100
AcDbLine
 10
85.0
 20
15.00000000000001
 30
0.0
 11
79.0
 21
15.00000000000001
 31
0.0
  0
LINE
  5
5DC
330
1F
100
AcDbEntity
  8
0
100
AcDbLine
 10
85.0
 20
15.00000000000001
 30
0.0
 11
91.0
 21
15.00000000000001
 31
0.0
  0
LINE
  5
5DD
330
1F
100
AcDbEntity
  8
0
100
AcDbLine
 10
85.0
 20
15.00000000000001
 30
0.0
 11
85.0
 21
9.000000000000007
 31
0.0
  0
LINE
  5
5DE
330
1F
100
AcDbEntity
  8
0
100
AcDbLine
 10
85.0
 20
50.0
 30
0.0
 11
91.0
 21
50.0
 31
0.0
  0
LINE
  5
5DF
330
1F
100
AcDbEntity
  8
0
100
AcDbLine
 10
91.0
 20
50.0
 30
0.0
 11
85.0
 21
50.0
 31
0.0
  0
LINE
  5
5E0
330
1F
100
AcDbEntity
  8
0
100
AcDbLine
 10
85.0
 20
50.0
 30
0.0
 11
85.0
 21
44.0
 31
0.0
  0
LINE
  5
5E1
330
1F
100
AcDbEntity
  8
0
100
AcDbLine
 10
85.0
 20
44.0
 30
0.0
 11
85.0
 21
50.0
 31
0.0
  0
LINE
  5
5E2
330
1F
100
AcDbEntity
  8
0
100
AcDbLine
 10
85.0
 20
50.0
 30
0.0
 11
79.0
 21
50.0
 31
0.0
  0
LINE
  5
5E3
330
1F
100
AcDbEntity
  8
0
100
AcDbLine
 10
61.99999999999999
 20
50.0
 30
0.0
 11
62.46937657375622
 21
50.0
 31
0.0
  0
LINE
  5
5E4
330
1F
100
AcDbEntity
  8
0
100
AcDbLine
 10
62.46937657375622
 20
50.0
 30
0.0
 11
61.99999999999999
 21
50.0
 31
0.0
  0
LINE
  5
5E5
330
1F
100
AcDbEntity
  8
0
100
AcDbLine
 10
61.99999999999999
 20
50.0
 30
0.0
 11
61.49846981242462
 21
50.0
 31
0.0
  0
LINE
  5
5E6
330
1F
100
AcDbEntity
  8
0
100
AcDbLine
 10
61.49846981242462
 20
50.0
 30
0.0
 11
61.99999999999999
 21
50.0
 31
0.0
  0
LINE
  5
5E7
330
1F
100
AcDbEntity
  8
0
100
AcDbLine
 10
61.99999999999999
 20
50.0
 30
0.0
 11
61.99999999999999
 21
49.70481998177824
 31
0.0
  0
LINE
  5
5E8
330
1F
100
AcDbEntity
  8
0
100
AcDbLine
 10
97.0
 20
50.0
 30
0.0
 11
96.27345887171091
 21
50.0
 31
0.0
  0
LINE
  5
5E9
330
1F
100
AcDbEntity
  8
0
100
AcDbLine
 10
96.27345887171091
 20
50.0
 30
0.0
 11
97.54114160584083
 21
50.0
 31
0.0
  0
LINE
  5
5EA
330
1F
100
AcDbEntity
  8
0
100
AcDbLine
 10
97.54114160584083
 20
50.0
 30
0.0
 11
97.0
 21
50.0
 31
0.0
  0
LINE
  5
5EB
330
1F
100
AcDbEntity
  8
0
100
AcDbLine
 10
97.0
 20
50.0
 30
0.0
 11
97.0
 21
49.52452014559294
 31
0.0
  0
LINE
  5
5EC
330
1F
100
AcDbEntity
  8
0
100
AcDbLine
 10
61.99999999999999
 20
15.00000000000001
 30
0.0
 11
62.82334319959665
 21
15.00000000000001
 31
0.0
  0
LINE
  5
5ED
330
1F
100
AcDbEntity
  8
0
100
AcDbLine
 10
62.82334319959665
 20
15.00000000000001
 30
0.0
 11
61.18231239055509
 21
15.00000000000001
 31
0.0
  0
LINE
  5
5EE
330
1F
100
AcDbEntity
  8
0
100
AcDbLine
 10
61.18231239055509
 20
15.00000000000001
 30
0.0
 11
62.00282779507587
 21
15.00000000000001
 31
0.0
  0
LINE
  5
5EF
330
1F
100
AcDbEntity
  8
0
100
AcDbLine
 10
62.00282779507587
 20
15.00000000000001
 30
0.0
 11
62.00282779507587
 21
14.15928659819159
 31
0.0
  0
LINE
  5
5F0
330
1F
100
AcDbEntity
  8
0
100
AcDbLine
 10
97.0
 20
15.00000000000001
 30
0.0
 11
96.43469596159503
 21
15.00000000000001
 31
0.0
  0
LINE
  5
5F1
330
1F
100
AcDbEntity
  8
0
100
AcDbLine
 10
96.43469596159503
 20
15.00000000000001
 30
0.0
 11
97.56518385226812
 21
15.00000000000001
 31
0.0
  0
LINE
  5
5F2
330
1F
100
AcDbEntity
  8
0
100
AcDbLine
 10
97.56518385226812
 20
15.00000000000001
 30
0.0
 11
97.0
 21
15.00000000000001
 31
0.0
  0
LINE
  5
5F3
330
1F
100
AcDbEntity
  8
0
100
AcDbLine
 10
97.0
 20
15.00000000000001
 30
0.0
 11
97.0
 21
14.470557095953
 31
0.0
  0
LINE
  5
5F8
330
1F
100
AcDbEntity
  8
0
100
AcDbLine
 10
97.0
 20
85.0
 30
0.0
 11
97.88878145255438
 21
85.0
 31
0.0
  0
LINE
  5
5F9
330
1F
100
AcDbEntity
  8
0
100
AcDbLine
 10
97.88878145255438
 20
85.0
 30
0.0
 11
96.19193517428869
 21
85.0
 31
0.0
  0
LINE
  5
5FA
330
1F
100
AcDbEntity
  8
0
100
AcDbLine
 10
96.19193517428869
 20
85.0
 30
0.0
 11
97.0
 21
85.0
 31
0.0
  0
LINE
  5
5FB
330
1F
100
AcDbEntity
  8
0
100
AcDbLine
 10
97.0
 20
85.0
 30
0.0
 11
97.0
 21
84.24604202156893
 31
0.0
  0
LINE
  5
5FC
330
1F
100
AcDbEntity
  8
0
100
AcDbLine
 10
61.99999999999999
 20
85.0
 30
0.0
 11
62.65711735052592
 21
85.0
 31
0.0
  0
LINE
  5
5FD
330
1F
100
AcDbEntity
  8
0
100
AcDbLine
 10
62.65711735052592
 20
85.0
 30
0.0
 11
61.33787911728271
 21
85.0
 31
0.0
  0
LINE
  5
5FE
330
1F
100
AcDbEntity
  8
0
100
AcDbLine
 10
61.33787911728271
 20
85.0
 30
0.0
 11
61.99999999999999
 21
85.0
 31
0.0
  0
LINE
  5
5FF
330
1F
100
AcDbEntity
  8
0
100
AcDbLine
 10
61.99999999999999
 20
85.0
 30
0.0
 11
61.99999999999999
 21
84.43411826515006
 31
0.0
  0
ENDSEC
  0
SECTION
  2
OBJECTS
  0
DICTIONARY
  5
C
330
0
100
AcDbDictionary
281
     1
  3
ACAD_GROUP
350
D
  3
ACAD_IMAGE_VARS
350
5A5
  3
ACAD_LAYOUT
350
1A
  3
ACAD_MATERIAL
350
3B
  3
ACAD_MLEADERSTYLE
350
550
  3
ACAD_MLINESTYLE
350
17
  3
ACAD_PLOTSETTINGS
350
19
  3
ACAD_PLOTSTYLENAME
350
E
  3
ACAD_SCALELIST
350
580
  3
ACAD_TABLESTYLE
350
5A2
  3
ACAD_VISUALSTYLE
350
2A
  3
ACDB_RECOMPOSE_DATA
350
605
  3
AcDbVariableDictionary
350
54E
  3
APPDATA
350
5A4
  0
DICTIONARY
  5
D
102
{ACAD_REACTORS
330
C
102
}
330
C
100
AcDbDictionary
281
     1
  0
RASTERVARIABLES
  5
5A5
102
{ACAD_REACTORS
330
C
102
}
330
C
100
AcDbRasterVariables
 90
        0
 70
     1
 71
     1
 72
     5
  0
DICTIONARY
  5
1A
102
{ACAD_REACTORS
330
C
102
}
330
C
100
AcDbDictionary
281
     1
  3
Layout1
350
1E
  3
Layout2
350
26
  3
Model
350
22
  0
DICTIONARY
  5
3B
102
{ACAD_REACTORS
330
C
102
}
330
C
100
AcDbDictionary
281
     1
  3
ByBlock
350
3D
  3
ByLayer
350
3C
  3
Global
350
3E
  0
DICTIONARY
  5
550
102
{ACAD_REACTORS
330
C
102
}
330
C
100
AcDbDictionary
281
     1
  0
DICTIONARY
  5
17
102
{ACAD_REACTORS
330
C
102
}
330
C
100
AcDbDictionary
281
     1
  3
Standard
350
18
  0
DICTIONARY
  5
19
102
{ACAD_REACTORS
330
C
102
}
330
C
100
AcDbDictionary
281
     1
  0
ACDBDICTIONARYWDFLT
  5
E
102
{ACAD_REACTORS
330
C
102
}
330
C
100
AcDbDictionary
281
     1
  3
Normal
350
F
100
AcDbDictionaryWithDefault
340
F
  0
DICTIONARY
  5
580
102
{ACAD_REACTORS
330
C
102
}
330
C
100
AcDbDictionary
281
     1
  3
A0
350
581
  3
A1
350
582
  3
A2
350
583
  3
A3
350
584
  3
A4
350
585
  3
A5
350
586
  3
A6
350
587
  3
A7
350
588
  3
A8
350
589
  3
A9
350
58A
  3
B0
350
58B
  3
B1
350
58C
  3
B2
350
58D
  3
B3
350
58E
  3
B4
350
58F
  3
B5
350
590
  3
B6
350
591
  3
B7
350
592
  3
B8
350
593
  3
B9
350
594
  3
C0
350
595
  3
C1
350
596
  3
C2
350
597
  3
C3
350
598
  3
C4
350
599
  3
C5
350
59A
  3
C6
350
59B
  3
C7
350
59C
  3
C8
350
59D
  3
C9
350
59E
  3
D0
350
59F
  3
D1
350
5A0
  3
D2
350
5A1
  0
DICTIONARY
  5
5A2
102
{ACAD_REACTORS
330
C
102
}
330
C
100
AcDbDictionary
281
     1
  3
Standard
350
5A3
  0
DICTIONARY
  5
2A
102
{ACAD_REACTORS
330
C
102
}
330
C
100
AcDbDictionary
281
     1
  3
2dWireframe
350
2F
  3
3D Hidden
350
31
  3
3dWireframe
350
30
  3
Basic
350
32
  3
Brighten
350
36
  3
ColorChange
350
3A
  3
Conceptual
350
34
  3
Dim
350
35
  3
Facepattern
350
39
  3
Flat
350
2B
  3
FlatWithEdges
350
2C
  3
Gouraud
350
2D
  3
GouraudWithEdges
350
2E
  3
Linepattern
350
38
  3
Realistic
350
33
  3
Thicken
350
37
  0
XRECORD
  5
605
102
{ACAD_REACTORS
330
C
102
}
330
C
100
AcDbXrecord
280
     1
 90
        1
330
5A3
  0
DICTIONARY
  5
54E
102
{ACAD_REACTORS
330
C
102
}
330
C
100
AcDbDictionary
281
     1
  3
CANNOSCALE
350
5D9
  3
CTABLESTYLE
350
5DA
  3
DIMASSOC
350
551
  3
HIDETEXT
350
552
  0
DICTIONARY
  5
5A4
102
{ACAD_REACTORS
330
C
102
}
330
C
100
AcDbDictionary
281
     1
  0
LAYOUT
  5
1E
102
{ACAD_REACTORS
330
1A
102
}
330
1A
100
AcDbPlotSettings
  1

  2
none_device
  4

  6

 40
0.0
 41
0.0
 42
0.0
 43
0.0
 44
0.0
 45
0.0
 46
0.0
 47
0.0
 48
0.0
 49
0.0
140
0.0
141
0.0
142
1.0
143
1.0
 70
   688
 72
     0
 73
     0
 74
     5
  7

 75
    16
 76
     0
 77
     2
 78
   300
147
1.0
148
0.0
149
0.0
100
AcDbLayout
  1
Layout1
 70
     1
 71
     1
 10
0.0
 20
0.0
 11
12.0
 21
9.0
 12
0.0
 22
0.0
 32
0.0
 14
1.000000000000000E+20
 24
1.000000000000000E+20
 34
1.000000000000000E+20
 15
-1.000000000000000E+20
 25
-1.000000000000000E+20
 35
-1.000000000000000E+20
146
0.0
 13
0.0
 23
0.0
 33
0.0
 16
1.0
 26
0.0
 36
0.0
 17
0.0
 27
1.0
 37
0.0
 76
     0
330
1B
  0
LAYOUT
  5
26
102
{ACAD_REACTORS
330
1A
102
}
330
1A
100
AcDbPlotSettings
  1

  2
none_device
  4

  6

 40
0.0
 41
0.0
 42
0.0
 43
0.0
 44
0.0
 45
0.0
 46
0.0
 47
0.0
 48
0.0
 49
0.0
140
0.0
141
0.0
142
1.0
143
1.0
 70
   688
 72
     0
 73
     0
 74
     5
  7

 75
    16
 76
     0
 77
     2
 78
   300
147
1.0
148
0.0
149
0.0
100
AcDbLayout
  1
Layout2
 70
     1
 71
     2
 10
0.0
 20
0.0
 11
0.0
 21
0.0
 12
0.0
 22
0.0
 32
0.0
 14
0.0
 24
0.0
 34
0.0
 15
0.0
 25
0.0
 35
0.0
146
0.0
 13
0.0
 23
0.0
 33
0.0
 16
1.0
 26
0.0
 36
0.0
 17
0.0
 27
1.0
 37
0.0
 76
     0
330
23
  0
LAYOUT
  5
22
102
{ACAD_REACTORS
330
1A
102
}
330
1A
100
AcDbPlotSettings
  1

  2
none_device
  4

  6

 40
0.0
 41
0.0
 42
0.0
 43
0.0
 44
0.0
 45
0.0
 46
0.0
 47
0.0
 48
0.0
 49
0.0
140
0.0
141
0.0
142
1.0
143
1.0
 70
  1712
 72
     0
 73
     0
 74
     0
  7

 75
     0
 76
     0
 77
     2
 78
   300
147
1.0
148
0.0
149
0.0
100
AcDbLayout
  1
Model
 70
     1
 71
     0
 10
0.0
 20
0.0
 11
12.0
 21
9.0
 12
0.0
 22
0.0
 32
0.0
 14
-59.99999999976002
 24
-59.99999999976002
 34
0.0
 15
100.0
 25
100.0
 35
0.0
146
0.0
 13
0.0
 23
0.0
 33
0.0
 16
1.0
 26
0.0
 36
0.0
 17
0.0
 27
1.0
 37
0.0
 76
     0
330
1F
331
29
  0
MATERIAL
  5
3D
102
{ACAD_REACTORS
330
3B
102
}
330
3B
100
AcDbMaterial
  1
ByBlock
 72
     1
 94
      127
  0
MATERIAL
  5
3C
102
{ACAD_REACTORS
330
3B
102
}
330
3B
100
AcDbMaterial
  1
ByLayer
 72
     1
 94
      127
  0
MATERIAL
  5
3E
102
{ACAD_REACTORS
330
3B
102
}
330
3B
100
AcDbMaterial
  1
Global
 72
     1
 94
      127
  0
MLINESTYLE
  5
18
102
{ACAD_REACTORS
330
17
102
}
330
17
100
AcDbMlineStyle
  2
Standard
 70
     0
  3

 62
   256
 51
90.0
 52
90.0
 71
     2
 49
0.5
 62
   256
  6
BYLAYER
 49
-0.5
 62
   256
  6
BYLAYER
  0
ACDBPLACEHOLDER
  5
F
102
{ACAD_REACTORS
330
E
102
}
330
E
  0
SCALE
  5
581
102
{ACAD_REACTORS
330
580
102
}
330
580
100
AcDbScale
 70
     0
300
1:1
140
1.0
141
1.0
290
     1
  0
SCALE
  5
582
102
{ACAD_REACTORS
330
580
102
}
330
580
100
AcDbScale
 70
     0
300
1:2
140
1.0
141
2.0
290
     0
  0
SCALE
  5
583
102
{ACAD_REACTORS
330
580
102
}
330
580
100
AcDbScale
 70
     0
300
1:4
140
1.0
141
4.0
290
     0
  0
SCALE
  5
584
102
{ACAD_REACTORS
330
580
102
}
330
580
100
AcDbScale
 70
     0
300
1:5
140
1.0
141
5.0
290
     0
  0
SCALE
  5
585
102
{ACAD_REACTORS
330
580
102
}
330
580
100
AcDbScale
 70
     0
300
1:8
140
1.0
141
8.0
290
     0
  0
SCALE
  5
586
102
{ACAD_REACTORS
330
580
102
}
330
580
100
AcDbScale
 70
     0
300
1:10
140
1.0
141
10.0
290
     0
  0
SCALE
  5
587
102
{ACAD_REACTORS
330
580
102
}
330
580
100
AcDbScale
 70
     0
300
1:16
140
1.0
141
16.0
290
     0
  0
SCALE
  5
588
102
{ACAD_REACTORS
330
580
102
}
330
580
100
AcDbScale
 70
     0
300
1:20
140
1.0
141
20.0
290
     0
  0
SCALE
  5
589
102
{ACAD_REACTORS
330
580
102
}
330
580
100
AcDbScale
 70
     0
300
1:30
140
1.0
141
30.0
290
     0
  0
SCALE
  5
58A
102
{ACAD_REACTORS
330
580
102
}
330
580
100
AcDbScale
 70
     0
300
1:40
140
1.0
141
40.0
290
     0
  0
SCALE
  5
58B
102
{ACAD_REACTORS
330
580
102
}
330
580
100
AcDbScale
 70
     0
300
1:50
140
1.0
141
50.0
290
     0
  0
SCALE
  5
58C
102
{ACAD_REACTORS
330
580
102
}
330
580
100
AcDbScale
 70
     0
300
1:100
140
1.0
141
100.0
290
     0
  0
SCALE
  5
58D
102
{ACAD_REACTORS
330
580
102
}
330
580
100
AcDbScale
 70
     0
300
2:1
140
2.0
141
1.0
290
     0
  0
SCALE
  5
58E
102
{ACAD_REACTORS
330
580
102
}
330
580
100
AcDbScale
 70
     0
300
4:1
140
4.0
141
1.0
290
     0
  0
SCALE
  5
58F
102
{ACAD_REACTORS
330
580
102
}
330
580
100
AcDbScale
 70
     0
300
8:1
140
8.0
141
1.0
290
     0
  0
SCALE
  5
590
102
{ACAD_REACTORS
330
580
102
}
330
580
100
AcDbScale
 70
     0
300
10:1
140
10.0
141
1.0
290
     0
  0
SCALE
  5
591
102
{ACAD_REACTORS
330
580
102
}
330
580
100
AcDbScale
 70
     0
300
100:1
140
100.0
141
1.0
290
     0
  0
SCALE
  5
592
102
{ACAD_REACTORS
330
580
102
}
330
580
100
AcDbScale
 70
     0
300
1/128" = 1'-0"
140
0.0078125
141
12.0
290
     0
  0
SCALE
  5
593
102
{ACAD_REACTORS
330
580
102
}
330
580
100
AcDbScale
 70
     0
300
1/64" = 1'-0"
140
0.015625
141
12.0
290
     0
  0
SCALE
  5
594
102
{ACAD_REACTORS
330
580
102
}
330
580
100
AcDbScale
 70
     0
300
1/32" = 1'-0"
140
0.03125
141
12.0
290
     0
  0
SCALE
  5
595
102
{ACAD_REACTORS
330
580
102
}
330
580
100
AcDbScale
 70
     0
300
1/16" = 1'-0"
140
0.0625
141
12.0
290
     0
  0
SCALE
  5
596
102
{ACAD_REACTORS
330
580
102
}
330
580
100
AcDbScale
 70
     0
300
3/32" = 1'-0"
140
0.09375
141
12.0
290
     0
  0
SCALE
  5
597
102
{ACAD_REACTORS
330
580
102
}
330
580
100
AcDbScale
 70
     0
300
1/8" = 1'-0"
140
0.125
141
12.0
290
     0
  0
SCALE
  5
598
102
{ACAD_REACTORS
330
580
102
}
330
580
100
AcDbScale
 70
     0
300
3/16" = 1'-0"
140
0.1875
141
12.0
290
     0
  0
SCALE
  5
599
102
{ACAD_REACTORS
330
580
102
}
330
580
100
AcDbScale
 70
     0
300
1/4" = 1'-0"
140
0.25
141
12.0
290
     0
  0
SCALE
  5
59A
102
{ACAD_REACTORS
330
580
102
}
330
580
100
AcDbScale
 70
     0
300
3/8" = 1'-0"
140
0.375
141
12.0
290
     0
  0
SCALE
  5
59B
102
{ACAD_REACTORS
330
580
102
}
330
580
100
AcDbScale
 70
     0
300
1/2" = 1'-0"
140
0.5
141
12.0
290
     0
  0
SCALE
  5
59C
102
{ACAD_REACTORS
330
580
102
}
330
580
100
AcDbScale
 70
     0
300
3/4" = 1'-0"
140
0.75
141
12.0
290
     0
  0
SCALE
  5
59D
102
{ACAD_REACTORS
330
580
102
}
330
580
100
AcDbScale
 70
     0
300
1" = 1'-0"
140
1.0
141
12.0
290
     0
  0
SCALE
  5
59E
102
{ACAD_REACTORS
330
580
102
}
330
580
100
AcDbScale
 70
     0
300
1-1/2" = 1'-0"
140
1.5
141
12.0
290
     0
  0
SCALE
  5
59F
102
{ACAD_REACTORS
330
580
102
}
330
580
100
AcDbScale
 70
     0
300
3" = 1'-0"
140
3.0
141
12.0
290
     0
  0
SCALE
  5
5A0
102
{ACAD_REACTORS
330
580
102
}
330
580
100
AcDbScale
 70
     0
300
6" = 1'-0"
140
6.0
141
12.0
290
     0
  0
SCALE
  5
5A1
102
{ACAD_REACTORS
330
580
102
}
330
580
100
AcDbScale
 70
     0
300
1'-0" = 1'-0"
140
12.0
141
12.0
290
     0
  0
TABLESTYLE
  5
5A3
102
{ACAD_REACTORS
330
5A2
102
}
102
{ACAD_XDICTIONARY
360
603
102
}
330
5A2
100
AcDbTableStyle
  3
Standard
 70
     0
 71
     0
 40
0.06
 41
0.06
280
     0
281
     0
  7
Standard
140
0.18
170
     2
 62
     0
 63
   257
283
     0
 90
        4
 91
        0
  1

274
    -2
284
     1
 64
     0
275
    -2
285
     1
 65
     0
276
    -2
286
     1
 66
     0
277
    -2
287
     1
 67
     0
278
    -2
288
     1
 68
     0
279
    -2
289
     1
 69
     0
  7
Standard
140
0.25
170
     5
 62
     0
 63
   257
283
     0
 90
        4
 91
        0
  1

274
    -2
284
     1
 64
     0
275
    -2
285
     1
 65
     0
276
    -2
286
     1
 66
     0
277
    -2
287
     1
 67
     0
278
    -2
288
     1
 68
     0
279
    -2
289
     1
 69
     0
  7
Standard
140
0.18
170
     5
 62
     0
 63
   257
283
     0
 90
        4
 91
        0
  1

274
    -2
284
     1
 64
     0
275
    -2
285
     1
 65
     0
276
    -2
286
     1
 66
     0
277
    -2
287
     1
 67
     0
278
    -2
288
     1
 68
     0
279
    -2
289
     1
 69
     0
  0
VISUALSTYLE
  5
2F
102
{ACAD_REACTORS
330
2A
102
}
330
2A
100
AcDbVisualStyle
  2
2dWireframe
 70
     4
177
     2
291
     0
 71
     0
176
     1
 72
     2
176
     1
 73
     0
176
     1
 90
        0
176
     1
 40
-0.6
176
     1
 41
-30.0
176
     1
 62
     5
 63
     7
176
     1
 74
     1
176
     1
 91
        4
176
     1
 64
     7
176
     1
 65
   257
176
     1
 75
     1
176
     1
175
     1
176
     1
 42
1.0
176
     1
 92
        0
176
     1
 66
   257
176
     1
 43
1.0
176
     1
 76
     1
176
     1
 77
     6
176
     1
 78
     2
176
     1
 67
     7
176
     1
 79
     5
176
     1
170
     0
176
     1
171
     0
176
     1
290
     0
176
     1
 93
        1
176
     1
 44
0.0
176
     1
173
     0
176
     1
  0
VISUALSTYLE
  5
31
102
{ACAD_REACTORS
330
2A
102
}
330
2A
100
AcDbVisualStyle
  2
3D Hidden
 70
     6
177
     2
291
     0
 71
     1
176
     1
 72
     2
176
     1
 73
     2
176
     1
 90
        0
176
     1
 40
-0.6
176
     1
 41
-30.0
176
     1
 62
     5
 63
     7
176
     1
 74
     2
176
     1
 91
        2
176
     1
 64
     7
176
     1
 65
   257
176
     1
 75
     2
176
     1
175
     1
176
     1
 42
40.0
176
     1
 92
        0
176
     1
 66
   257
176
     1
 43
1.0
176
     1
 76
     1
176
     1
 77
     6
176
     1
 78
     2
176
     1
 67
     7
176
     1
 79
     3
176
     1
170
     0
176
     1
171
     0
176
     1
290
     0
176
     1
 93
        1
176
     1
 44
0.0
176
     1
173
     0
176
     1
  0
VISUALSTYLE
  5
30
102
{ACAD_REACTORS
330
2A
102
}
330
2A
100
AcDbVisualStyle
  2
3dWireframe
 70
     5
177
     2
291
     0
 71
     0
176
     1
 72
     2
176
     1
 73
     0
176
     1
 90
        0
176
     1
 40
-0.6
176
     1
 41
-30.0
176
     1
 62
     5
 63
     7
176
     1
 74
     1
176
     1
 91
        4
176
     1
 64
     7
176
     1
 65
   257
176
     1
 75
     1
176
     1
175
     1
176
     1
 42
1.0
176
     1
 92
        0
176
     1
 66
   257
176
     1
 43
1.0
176
     1
 76
     1
176
     1
 77
     6
176
     1
 78
     2
176
     1
 67
     7
176
     1
 79
     5
176
     1
170
     0
176
     1
171
     0
176
     1
290
     0
176
     1
 93
        1
176
     1
 44
0.0
176
     1
173
     0
176
     1
  0
VISUALSTYLE
  5
32
102
{ACAD_REACTORS
330
2A
102
}
330
2A
100
AcDbVisualStyle
  2
Basic
 70
     7
177
     2
291
     1
 71
     1
176
     1
 72
     0
176
     1
 73
     1
176
     1
 90
        0
176
     1
 40
-0.6
176
     1
 41
-30.0
176
     1
 62
     5
 63
     7
176
     1
 74
     0
176
     1
 91
        4
176
     1
 64
     7
176
     1
 65
   257
176
     1
 75
     1
176
     1
175
     1
176
     1
 42
1.0
176
     1
 92
        8
176
     1
 66
     7
176
     1
 43
1.0
176
     1
 76
     1
176
     1
 77
     6
176
     1
 78
     2
176
     1
 67
     7
176
     1
 79
     5
176
     1
170
     0
176
     1
171
     0
176
     1
290
     0
176
     1
 93
        1
176
     1
 44
0.0
176
     1
173
     0
176
     1
  0
VISUALSTYLE
  5
36
102
{ACAD_REACTORS
330
2A
102
}
330
2A
100
AcDbVisualStyle
  2
Brighten
 70
    12
177
     2
291
     1
 71
     2
176
     1
 72
     2
176
     1
 73
     0
176
     1
 90
        0
176
     1
 40
-0.6
176
     1
 41
-30.0
176
     1
 62
     5
 63
     7
176
     1
 74
     1
176
     1
 91
        4
176
     1
 64
     7
176
     1
 65
   257
176
     1
 75
     1
176
     1
175
     1
176
     1
 42
1.0
176
     1
 92
        8
176
     1
 66
     7
176
     1
 43
1.0
176
     1
 76
     1
176
     1
 77
     6
176
     1
 78
     2
176
     1
 67
     7
176
     1
 79
     5
176
     1
170
     0
176
     1
171
     0
176
     1
290
     0
176
     1
 93
        1
176
     1
 44
50.0
176
     1
173
     0
176
     1
  0
VISUALSTYLE
  5
3A
102
{ACAD_REACTORS
330
2A
102
}
330
2A
100
AcDbVisualStyle
  2
ColorChange
 70
    16
177
     2
291
     1
 71
     2
176
     1
 72
     2
176
     1
 73
     3
176
     1
 90
        0
176
     1
 40
-0.6
176
     1
 41
-30.0
176
     1
 62
     5
 63
     8
176
     1
 74
     1
176
     1
 91
        4
176
     1
 64
     7
176
     1
 65
   257
176
     1
 75
     1
176
     1
175
     1
176
     1
 42
1.0
176
     1
 92
        8
176
     1
 66
     8
176
     1
 43
1.0
176
     1
 76
     1
176
     1
 77
     6
176
     1
 78
     2
176
     1
 67
     7
176
     1
 79
     5
176
     1
170
     0
176
     1
171
     0
176
     1
290
     0
176
     1
 93
        1
176
     1
 44
0.0
176
     1
173
     0
176
     1
  0
VISUALSTYLE
  5
34
102
{ACAD_REACTORS
330
2A
102
}
330
2A
100
AcDbVisualStyle
  2
Conceptual
 70
     9
177
     2
291
     0
 71
     3
176
     1
 72
     2
176
     1
 73
     0
176
     1
 90
        0
176
     1
 40
-0.6
176
     1
 41
-30.0
176
     1
 62
     5
 63
     7
176
     1
 74
     2
176
     1
 91
        2
176
     1
 64
     7
176
     1
 65
   257
176
     1
 75
     1
176
     1
175
     1
176
     1
 42
40.0
176
     1
 92
        8
176
     1
 66
     7
176
     1
 43
1.0
176
     1
 76
     1
176
     1
 77
     6
176
     1
 78
     2
176
     1
 67
     7
176
     1
 79
     3
176
     1
170
     0
176
     1
171
     0
176
     1
290
     0
176
     1
 93
        1
176
     1
 44
0.0
176
     1
173
     0
176
     1
  0
VISUALSTYLE
  5
35
102
{ACAD_REACTORS
330
2A
102
}
330
2A
100
AcDbVisualStyle
  2
Dim
 70
    11
177
     2
291
     1
 71
     2
176
     1
 72
     2
176
     1
 73
     0
176
     1
 90
        0
176
     1
 40
-0.6
176
     1
 41
-30.0
176
     1
 62
     5
 63
     7
176
     1
 74
     1
176
     1
 91
        4
176
     1
 64
     7
176
     1
 65
   257
176
     1
 75
     1
176
     1
175
     1
176
     1
 42
1.0
176
     1
 92
        8
176
     1
 66
     7
176
     1
 43
1.0
176
     1
 76
     1
176
     1
 77
     6
176
     1
 78
     2
176
     1
 67
     7
176
     1
 79
     5
176
     1
170
     0
176
     1
171
     0
176
     1
290
     0
176
     1
 93
        1
176
     1
 44
-50.0
176
     1
173
     0
176
     1
  0
VISUALSTYLE
  5
39
102
{ACAD_REACTORS
330
2A
102
}
330
2A
100
AcDbVisualStyle
  2
Facepattern
 70
    15
177
     2
291
     1
 71
     2
176
     1
 72
     2
176
     1
 73
     0
176
     1
 90
        0
176
     1
 40
-0.6
176
     1
 41
-30.0
176
     1
 62
     5
 63
     7
176
     1
 74
     1
176
     1
 91
        4
176
     1
 64
     7
176
     1
 65
   257
176
     1
 75
     1
176
     1
175
     1
176
     1
 42
1.0
176
     1
 92
        8
176
     1
 66
     7
176
     1
 43
1.0
176
     1
 76
     1
176
     1
 77
     6
176
     1
 78
     2
176
     1
 67
     7
176
     1
 79
     5
176
     1
170
     0
176
     1
171
     0
176
     1
290
     0
176
     1
 93
        1
176
     1
 44
0.0
176
     1
173
     0
176
     1
  0
VISUALSTYLE
  5
2B
102
{ACAD_REACTORS
330
2A
102
}
330
2A
100
AcDbVisualStyle
  2
Flat
 70
     0
177
     2
291
     1
 71
     2
176
     1
 72
     1
176
     1
 73
     1
176
     1
 90
        2
176
     1
 40
-0.6
176
     1
 41
30.0
176
     1
 62
     5
 63
     7
176
     1
 74
     0
176
     1
 91
        4
176
     1
 64
     7
176
     1
 65
   257
176
     1
 75
     1
176
     1
175
     1
176
     1
 42
1.0
176
     1
 92
        8
176
     1
 66
     7
176
     1
 43
1.0
176
     1
 76
     1
176
     1
 77
     6
176
     1
 78
     2
176
     1
 67
     7
176
     1
 79
     5
176
     1
170
     0
176
     1
171
     0
176
     1
290
     0
176
     1
 93
       13
176
     1
 44
0.0
176
     1
173
     0
176
     1
  0
VISUALSTYLE
  5
2C
102
{ACAD_REACTORS
330
2A
102
}
330
2A
100
AcDbVisualStyle
  2
FlatWithEdges
 70
     1
177
     2
291
     1
 71
     2
176
     1
 72
     1
176
     1
 73
     1
176
     1
 90
        2
176
     1
 40
-0.6
176
     1
 41
30.0
176
     1
 62
     5
 63
     7
176
     1
 74
     1
176
     1
 91
        4
176
     1
 64
     7
176
     1
 65
   257
176
     1
 75
     1
176
     1
175
     1
176
     1
 42
1.0
176
     1
 92
        0
176
     1
 66
   257
176
     1
 43
1.0
176
     1
 76
     1
176
     1
 77
     6
176
     1
 78
     2
176
     1
 67
     7
176
     1
 79
     5
176
     1
170
     0
176
     1
171
     0
176
     1
290
     0
176
     1
 93
       13
176
     1
 44
0.0
176
     1
173
     0
176
     1
  0
VISUALSTYLE
  5
2D
102
{ACAD_REACTORS
330
2A
102
}
330
2A
100
AcDbVisualStyle
  2
Gouraud
 70
     2
177
     2
291
     1
 71
     2
176
     1
 72
     2
176
     1
 73
     1
176
     1
 90
        2
176
     1
 40
-0.6
176
     1
 41
30.0
176
     1
 62
     5
 63
     7
176
     1
 74
     0
176
     1
 91
        4
176
     1
 64
     7
176
     1
 65
   257
176
     1
 75
     1
176
     1
175
     1
176
     1
 42
1.0
176
     1
 92
        0
176
     1
 66
     7
176
     1
 43
1.0
176
     1
 76
     1
176
     1
 77
     6
176
     1
 78
     2
176
     1
 67
     7
176
     1
 79
     5
176
     1
170
     0
176
     1
171
     0
176
     1
290
     0
176
     1
 93
       13
176
     1
 44
0.0
176
     1
173
     0
176
     1
  0
VISUALSTYLE
  5
2E
102
{ACAD_REACTORS
330
2A
102
}
330
2A
100
AcDbVisualStyle
  2
GouraudWithEdges
 70
     3
177
     2
291
     1
 71
     2
176
     1
 72
     2
176
     1
 73
     1
176
     1
 90
        2
176
     1
 40
-0.6
176
     1
 41
30.0
176
     1
 62
     5
 63
     7
176
     1
 74
     1
176
     1
 91
        4
176
     1
 64
     7
176
     1
 65
   257
176
     1
 75
     1
176
     1
175
     1
176
     1
 42
1.0
176
     1
 92
        0
176
     1
 66
   257
176
     1
 43
1.0
176
     1
 76
     1
176
     1
 77
     6
176
     1
 78
     2
176
     1
 67
     7
176
     1
 79
     5
176
     1
170
     0
176
     1
171
     0
176
     1
290
     0
176
     1
 93
       13
176
     1
 44
0.0
176
     1
173
     0
176
     1
  0
VISUALSTYLE
  5
38
102
{ACAD_REACTORS
330
2A
102
}
330
2A
100
AcDbVisualStyle
  2
Linepattern
 70
    14
177
     2
291
     1
 71
     2
176
     1
 72
     2
176
     1
 73
     0
176
     1
 90
        0
176
     1
 40
-0.6
176
     1
 41
-30.0
176
     1
 62
     5
 63
     7
176
     1
 74
     1
176
     1
 91
        4
176
     1
 64
     7
176
     1
 65
   257
176
     1
 75
     7
176
     1
175
     7
176
     1
 42
1.0
176
     1
 92
        8
176
     1
 66
     7
176
     1
 43
1.0
176
     1
 76
     1
176
     1
 77
     6
176
     1
 78
     2
176
     1
 67
     7
176
     1
 79
     5
176
     1
170
     0
176
     1
171
     0
176
     1
290
     0
176
     1
 93
        1
176
     1
 44
0.0
176
     1
173
     0
176
     1
  0
VISUALSTYLE
  5
33
102
{ACAD_REACTORS
330
2A
102
}
330
2A
100
AcDbVisualStyle
  2
Realistic
 70
     8
177
     2
291
     0
 71
     2
176
     1
 72
     2
176
     1
 73
     0
176
     1
 90
        0
176
     1
 40
-0.6
176
     1
 41
-30.0
176
     1
 62
     5
 63
     7
176
     1
 74
     1
176
     1
 91
        0
176
     1
 64
     7
176
     1
 65
   257
176
     1
 75
     1
176
     1
175
     1
176
     1
 42
1.0
176
     1
 92
        8
176
     1
 66
     8
176
     1
 43
1.0
176
     1
 76
     1
176
     1
 77
     6
176
     1
 78
     2
176
     1
 67
     7
176
     1
 79
     5
176
     1
170
     0
176
     1
171
     0
176
     1
290
     0
176
     1
 93
       13
176
     1
 44
0.0
176
     1
173
     0
176
     1
  0
VISUALSTYLE
  5
37
102
{ACAD_REACTORS
330
2A
102
}
330
2A
100
AcDbVisualStyle
  2
Thicken
 70
    13
177
     2
291
     1
 71
     2
176
     1
 72
     2
176
     1
 73
     0
176
     1
 90
        0
176
     1
 40
-0.6
176
     1
 41
-30.0
176
     1
 62
     5
 63
     7
176
     1
 74
     1
176
     1
 91
        4
176
     1
 64
     7
176
     1
 65
   257
176
     1
 75
     1
176
     1
175
     1
176
     1
 42
1.0
176
     1
 92
       12
176
     1
 66
     7
176
     1
 43
1.0
176
     1
 76
     1
176
     1
 77
     6
176
     1
 78
     2
176
     1
 67
     7
176
     1
 79
     5
176
     1
170
     0
176
     1
171
     0
176
     1
290
     0
176
     1
 93
        1
176
     1
 44
0.0
176
     1
173
     0
176
     1
  0
DICTIONARYVAR
  5
5D9
102
{ACAD_REACTORS
330
54E
102
}
330
54E
100
DictionaryVariables
280
     0
  1
1:1
  0
DICTIONARYVAR
  5
5DA
102
{ACAD_REACTORS
330
54E
102
}
330
54E
100
DictionaryVariables
280
     0
  1
Standard
  0
DICTIONARYVAR
  5
551
102
{ACAD_REACTORS
330
54E
102
}
330
54E
100
DictionaryVariables
280
     0
  1
2
  0
DICTIONARYVAR
  5
552
102
{ACAD_REACTORS
330
54E
102
}
330
54E
100
DictionaryVariables
280
     0
  1
1
  0
DICTIONARY
  5
603
330
5A3
100
AcDbDictionary
280
     1
281
     1
  3
ACAD_ROUNDTRIP_2008_TABLESTYLE_CELLSTYLEMAP
360
604
  0
CELLSTYLEMAP
  5
604
102
{ACAD_REACTORS
330
603
102
}
330
603
100
AcDbCellStyleMap
 90
        3
300
CELLSTYLE
  1
TABLEFORMAT_BEGIN
 90
        5
170
     1
 91
        0
 92
        0
 62
   257
 93
        1
300
CONTENTFORMAT
  1
CONTENTFORMAT_BEGIN
 90
        0
 91
        0
 92
        4
 93
        0
300

 40
0.0
140
1.0
 94
        5
 62
     0
340
11
144
0.25
309
CONTENTFORMAT_END
171
     1
301
MARGIN
  1
CELLMARGIN_BEGIN
 40
0.06
 40
0.06
 40
0.06
 40
0.06
 40
0.06
 40
0.06
309
CELLMARGIN_END
 94
        6
 95
        1
302
GRIDFORMAT
  1
GRIDFORMAT_BEGIN
 90
        0
 91
        1
 62
     0
 92
       -2
340
14
 93
        0
 40
0.045
309
GRIDFORMAT_END
 95
        2
302
GRIDFORMAT
  1
GRIDFORMAT_BEGIN
 90
        0
 91
        1
 62
     0
 92
       -2
340
14
 93
        0
 40
0.045
309
GRIDFORMAT_END
 95
        4
302
GRIDFORMAT
  1
GRIDFORMAT_BEGIN
 90
        0
 91
        1
 62
     0
 92
       -2
340
14
 93
        0
 40
0.045
309
GRIDFORMAT_END
 95
        8
302
GRIDFORMAT
  1
GRIDFORMAT_BEGIN
 90
        0
 91
        1
 62
     0
 92
       -2
340
14
 93
        0
 40
0.045
309
GRIDFORMAT_END
 95
       16
302
GRIDFORMAT
  1
GRIDFORMAT_BEGIN
 90
        0
 91
        1
 62
     0
 92
       -2
340
14
 93
        0
 40
0.045
309
GRIDFORMAT_END
 95
       32
302
GRIDFORMAT
  1
GRIDFORMAT_BEGIN
 90
        0
 91
        1
 62
     0
 92
       -2
340
14
 93
        0
 40
0.045
309
GRIDFORMAT_END
309
TABLEFORMAT_END
  1
CELLSTYLE_BEGIN
 90
        1
 91
        1
300
_TITLE
309
CELLSTYLE_END
300
CELLSTYLE
  1
TABLEFORMAT_BEGIN
 90
        5
170
     1
 91
        0
 92
        0
 62
   257
 93
        1
300
CONTENTFORMAT
  1
CONTENTFORMAT_BEGIN
 90
        0
 91
        0
 92
        4
 93
        0
300

 40
0.0
140
1.0
 94
        5
 62
     0
340
11
144
0.18
309
CONTENTFORMAT_END
171
     1
301
MARGIN
  1
CELLMARGIN_BEGIN
 40
0.06
 40
0.06
 40
0.06
 40
0.06
 40
0.06
 40
0.06
309
CELLMARGIN_END
 94
        6
 95
        1
302
GRIDFORMAT
  1
GRIDFORMAT_BEGIN
 90
        0
 91
        1
 62
     0
 92
       -2
340
14
 93
        0
 40
0.045
309
GRIDFORMAT_END
 95
        2
302
GRIDFORMAT
  1
GRIDFORMAT_BEGIN
 90
        0
 91
        1
 62
     0
 92
       -2
340
14
 93
        0
 40
0.045
309
GRIDFORMAT_END
 95
        4
302
GRIDFORMAT
  1
GRIDFORMAT_BEGIN
 90
        0
 91
        1
 62
     0
 92
       -2
340
14
 93
        0
 40
0.045
309
GRIDFORMAT_END
 95
        8
302
GRIDFORMAT
  1
GRIDFORMAT_BEGIN
 90
        0
 91
        1
 62
     0
 92
       -2
340
14
 93
        0
 40
0.045
309
GRIDFORMAT_END
 95
       16
302
GRIDFORMAT
  1
GRIDFORMAT_BEGIN
 90
        0
 91
        1
 62
     0
 92
       -2
340
14
 93
        0
 40
0.045
309
GRIDFORMAT_END
 95
       32
302
GRIDFORMAT
  1
GRIDFORMAT_BEGIN
 90
        0
 91
        1
 62
     0
 92
       -2
340
14
 93
        0
 40
0.045
309
GRIDFORMAT_END
309
TABLEFORMAT_END
  1
CELLSTYLE_BEGIN
 90
        2
 91
        1
300
_HEADER
309
CELLSTYLE_END
300
CELLSTYLE
  1
TABLEFORMAT_BEGIN
 90
        5
170
     1
 91
        0
 92
        0
 62
   257
 93
        1
300
CONTENTFORMAT
  1
CONTENTFORMAT_BEGIN
 90
        0
 91
        0
 92
        4
 93
        0
300

 40
0.0
140
1.0
 94
        2
 62
     0
340
11
144
0.18
309
CONTENTFORMAT_END
171
     1
301
MARGIN
  1
CELLMARGIN_BEGIN
 40
0.06
 40
0.06
 40
0.06
 40
0.06
 40
0.06
 40
0.06
309
CELLMARGIN_END
 94
        6
 95
        1
302
GRIDFORMAT
  1
GRIDFORMAT_BEGIN
 90
        0
 91
        1
 62
     0
 92
       -2
340
14
 93
        0
 40
0.045
309
GRIDFORMAT_END
 95
        2
302
GRIDFORMAT
  1
GRIDFORMAT_BEGIN
 90
        0
 91
        1
 62
     0
 92
       -2
340
14
 93
        0
 40
0.045
309
GRIDFORMAT_END
 95
        4
302
GRIDFORMAT
  1
GRIDFORMAT_BEGIN
 90
        0
 91
        1
 62
     0
 92
       -2
340
14
 93
        0
 40
0.045
309
GRIDFORMAT_END
 95
        8
302
GRIDFORMAT
  1
GRIDFORMAT_BEGIN
 90
        0
 91
        1
 62
     0
 92
       -2
340
14
 93
        0
 40
0.045
309
GRIDFORMAT_END
 95
       16
302
GRIDFORMAT
  1
GRIDFORMAT_BEGIN
 90
        0
 91
        1
 62
     0
 92
       -2
340
14
 93
        0
 40
0.045
309
GRIDFORMAT_END
 95
       32
302
GRIDFORMAT
  1
GRIDFORMAT_BEGIN
 90
        0
 91
        1
 62
     0
 92
       -2
340
14
 93
        0
 40
0.045
309
GRIDFORMAT_END
309
TABLEFORMAT_END
  1
CELLSTYLE_BEGIN
 90
        3
 91
        2
300
_DATA
309
CELLSTYLE_END
  0
ENDSEC
  0
EOF
